AtkinsonHyperlegibleMono-ExtraLightItalic.sfdir
StartChar: exclam
Encoding: 33 33 254
Width: 632
GlyphClass: 1
Flags: W
LayerCount: 2
Fore
SplineSet
341 497 m 1,0,-1
 377 668 l 1,1,-1
 433 668 l 1,2,-1
 397 497 l 1,3,-1
 315 171 l 1,4,-1
 284 171 l 1,5,-1
 341 497 l 1,0,-1
237 2 m 128,-1,7
 223 16 223 16 223 36 c 256,8,9
 223 56 223 56 237 70 c 128,-1,10
 251 84 251 84 271 84 c 256,11,12
 291 84 291 84 305 70 c 128,-1,13
 319 56 319 56 319 36 c 256,14,15
 319 16 319 16 305 2 c 128,-1,16
 291 -12 291 -12 271 -12 c 256,17,6
 251 -12 251 -12 237 2 c 128,-1,7
EndSplineSet
EndChar
StartChar: quotedbl
Encoding: 34 34 284
Width: 632
GlyphClass: 1
Flags: W
LayerCount: 2
Fore
SplineSet
292 668 m 1,0,-1
 351 668 l 1,1,-1
 284 432 l 1,2,-1
 259 432 l 1,3,-1
 292 668 l 1,0,-1
459 668 m 1,4,-1
 518 668 l 1,5,-1
 451 432 l 1,6,-1
 426 432 l 1,7,-1
 459 668 l 1,4,-1
EndSplineSet
EndChar
StartChar: dollar
Encoding: 36 36 304
Width: 632
GlyphClass: 1
Flags: W
LayerCount: 2
Fore
SplineSet
120.5 43.5 m 128,-1,1
 71 82 71 82 57 143 c 1,2,-1
 114 163 l 1,3,4
 123 113 123 113 158 82 c 128,-1,5
 193 51 193 51 244 41 c 1,6,-1
 307 332 l 1,7,-1
 276 344 l 2,8,9
 142 396 142 396 142 494 c 0,10,11
 142 542 142 542 169.5 584.5 c 128,-1,12
 197 627 197 627 251 653.5 c 128,-1,13
 305 680 305 680 380 680 c 1,14,-1
 397 758 l 1,15,-1
 435 758 l 1,16,-1
 418 677 l 1,17,18
 478 669 478 669 523.5 639.5 c 128,-1,19
 569 610 569 610 590 560 c 1,20,-1
 535 542 l 1,21,22
 520 577 520 577 485.5 600 c 128,-1,23
 451 623 451 623 408 629 c 1,24,-1
 354 372 l 1,25,-1
 387 359 l 2,26,27
 467 329 467 329 507 291.5 c 128,-1,28
 547 254 547 254 547 195 c 0,29,30
 547 141 547 141 516.5 93 c 128,-1,31
 486 45 486 45 423.5 16 c 128,-1,32
 361 -13 361 -13 272 -11 c 1,33,-1
 255 -90 l 1,34,-1
 217 -90 l 1,35,-1
 235 -7 l 1,36,0
 170 5 170 5 120.5 43.5 c 128,-1,1
394 55 m 128,-1,38
 441 76 441 76 465.5 112 c 128,-1,39
 490 148 490 148 490 190 c 0,40,41
 490 233 490 233 457.5 259.5 c 128,-1,42
 425 286 425 286 364 310 c 2,43,-1
 342 319 l 1,44,-1
 282 36 l 1,45,37
 347 34 347 34 394 55 c 128,-1,38
247.5 594.5 m 128,-1,47
 199 559 199 559 199 498 c 0,48,49
 199 461 199 461 224.5 436.5 c 128,-1,50
 250 412 250 412 298 393 c 2,51,-1
 318 385 l 1,52,-1
 370 632 l 1,53,46
 296 630 296 630 247.5 594.5 c 128,-1,47
EndSplineSet
EndChar
StartChar: percent
Encoding: 37 37 332
Width: 632
GlyphClass: 1
Flags: W
LayerCount: 2
Fore
SplineSet
139.5 406 m 128,-1,1
 106 426 106 426 86.5 460 c 128,-1,2
 67 494 67 494 67 534 c 256,3,4
 67 574 67 574 86.5 608 c 128,-1,5
 106 642 106 642 139.5 662 c 128,-1,6
 173 682 173 682 214 682 c 256,7,8
 255 682 255 682 288.5 662 c 128,-1,9
 322 642 322 642 341.5 608 c 128,-1,10
 361 574 361 574 361 534 c 256,11,12
 361 494 361 494 341.5 460 c 128,-1,13
 322 426 322 426 288.5 406 c 128,-1,14
 255 386 255 386 214 386 c 256,15,0
 173 386 173 386 139.5 406 c 128,-1,1
283.5 463 m 128,-1,17
 312 492 312 492 312 534 c 0,18,19
 312 575 312 575 283 604.5 c 128,-1,20
 254 634 254 634 214 634 c 0,21,22
 173 634 173 634 144.5 604.5 c 128,-1,23
 116 575 116 575 116 534 c 0,24,25
 116 492 116 492 144.5 463 c 128,-1,26
 173 434 173 434 214 434 c 256,27,16
 255 434 255 434 283.5 463 c 128,-1,17
556 668 m 1,28,-1
 616 668 l 1,29,-1
 112 0 l 1,30,-1
 52 0 l 1,31,-1
 556 668 l 1,28,-1
380.5 6 m 128,-1,33
 347 26 347 26 327.5 60 c 128,-1,34
 308 94 308 94 308 134 c 256,35,36
 308 174 308 174 327.5 208 c 128,-1,37
 347 242 347 242 380.5 262 c 128,-1,38
 414 282 414 282 455 282 c 256,39,40
 496 282 496 282 529.5 262 c 128,-1,41
 563 242 563 242 582.5 208 c 128,-1,42
 602 174 602 174 602 134 c 256,43,44
 602 94 602 94 582.5 60 c 128,-1,45
 563 26 563 26 529.5 6 c 128,-1,46
 496 -14 496 -14 455 -14 c 256,47,32
 414 -14 414 -14 380.5 6 c 128,-1,33
524.5 63 m 128,-1,49
 553 92 553 92 553 134 c 0,50,51
 553 175 553 175 524 204.5 c 128,-1,52
 495 234 495 234 455 234 c 0,53,54
 414 234 414 234 385.5 204.5 c 128,-1,55
 357 175 357 175 357 134 c 0,56,57
 357 92 357 92 385.5 63 c 128,-1,58
 414 34 414 34 455 34 c 256,59,48
 496 34 496 34 524.5 63 c 128,-1,49
EndSplineSet
EndChar
StartChar: quotesingle
Encoding: 39 39 285
Width: 632
GlyphClass: 1
Flags: W
LayerCount: 2
Fore
SplineSet
376 668 m 1,0,-1
 435 668 l 1,1,-1
 368 432 l 1,2,-1
 343 432 l 1,3,-1
 376 668 l 1,0,-1
EndSplineSet
EndChar
StartChar: plus
Encoding: 43 43 311
Width: 632
GlyphClass: 1
Flags: W
LayerCount: 2
Fore
SplineSet
285 222 m 1,0,-1
 63 222 l 1,1,-1
 73 274 l 1,2,-1
 295 274 l 1,3,-1
 343 496 l 1,4,-1
 395 496 l 1,5,-1
 347 274 l 1,6,-1
 569 274 l 1,7,-1
 559 222 l 1,8,-1
 337 222 l 1,9,-1
 289 0 l 1,10,-1
 237 0 l 1,11,-1
 285 222 l 1,0,-1
EndSplineSet
EndChar
StartChar: comma
Encoding: 44 44 250
Width: 632
GlyphClass: 1
Flags: W
LayerCount: 2
Fore
SplineSet
232 9 m 128,-1,1
 222 23 222 23 222 41 c 0,2,3
 222 63 222 63 237.5 78.5 c 128,-1,4
 253 94 253 94 275 94 c 0,5,6
 299 94 299 94 313 78.5 c 128,-1,7
 327 63 327 63 327 44 c 0,8,9
 327 34 327 34 324 26 c 128,-1,10
 321 18 321 18 314 7 c 2,11,-1
 225 -138 l 1,12,-1
 181 -138 l 1,13,-1
 260 -12 l 1,14,0
 242 -5 242 -5 232 9 c 128,-1,1
EndSplineSet
EndChar
StartChar: period
Encoding: 46 46 249
Width: 632
GlyphClass: 1
Flags: W
LayerCount: 2
Fore
SplineSet
234.5 3.5 m 128,-1,1
 219 19 219 19 219 41 c 256,2,3
 219 63 219 63 234.5 78.5 c 128,-1,4
 250 94 250 94 272 94 c 0,5,6
 295 94 295 94 310 79 c 128,-1,7
 325 64 325 64 325 41 c 0,8,9
 325 19 325 19 309.5 3.5 c 128,-1,10
 294 -12 294 -12 272 -12 c 256,11,0
 250 -12 250 -12 234.5 3.5 c 128,-1,1
EndSplineSet
EndChar
StartChar: slash
Encoding: 47 47 262
Width: 632
GlyphClass: 5
Flags: W
LayerCount: 2
Fore
SplineSet
612 708 m 1,0,-1
 670 708 l 1,1,-1
 46 -90 l 1,2,-1
 -12 -90 l 1,3,-1
 612 708 l 1,0,-1
EndSplineSet
EndChar
StartChar: three
Encoding: 51 51 232
Width: 632
GlyphClass: 5
Flags: W
LayerCount: 2
Fore
SplineSet
145 32.5 m 128,-1,1
 88 77 88 77 84 158 c 1,2,-1
 140 167 l 1,3,4
 145 102 145 102 188 69.5 c 128,-1,5
 231 37 231 37 296 37 c 0,6,7
 347 37 347 37 389 57 c 128,-1,8
 431 77 431 77 455 114 c 128,-1,9
 479 151 479 151 479 199 c 0,10,11
 479 244 479 244 454 273.5 c 128,-1,12
 429 303 429 303 391.5 317 c 128,-1,13
 354 331 354 331 317 331 c 2,14,-1
 303 331 l 1,15,-1
 313 380 l 1,16,-1
 367 380 l 2,17,18
 416 380 416 380 451 400.5 c 128,-1,19
 486 421 486 421 504.5 453.5 c 128,-1,20
 523 486 523 486 523 522 c 0,21,22
 523 572 523 572 484 601.5 c 128,-1,23
 445 631 445 631 388 631 c 0,24,25
 330 631 330 631 282 598 c 128,-1,26
 234 565 234 565 216 506 c 1,27,-1
 160 521 l 1,28,29
 191 599 191 599 252.5 639.5 c 128,-1,30
 314 680 314 680 392 680 c 0,31,32
 473 680 473 680 526 639.5 c 128,-1,33
 579 599 579 599 579 530 c 0,34,35
 579 488 579 488 561.5 449 c 128,-1,36
 544 410 544 410 509 382.5 c 128,-1,37
 474 355 474 355 423 349 c 1,38,39
 476 335 476 335 506 293.5 c 128,-1,40
 536 252 536 252 536 199 c 0,41,42
 536 138 536 138 503.5 90 c 128,-1,43
 471 42 471 42 416 15 c 128,-1,44
 361 -12 361 -12 294 -12 c 0,45,0
 202 -12 202 -12 145 32.5 c 128,-1,1
EndSplineSet
Substitution2: "'sups' Superscript in Latin lookup 6 subtable" uni00B3
AlternateSubs2: "'aalt' Access All Alternates in Latin lookup 0 subtable" uni00B3
EndChar
StartChar: four
Encoding: 52 52 233
Width: 632
GlyphClass: 5
Flags: W
LayerCount: 2
Fore
SplineSet
382 177 m 1,0,-1
 47 177 l 1,1,-1
 60 240 l 1,2,-1
 476 668 l 1,3,-1
 542 668 l 1,4,-1
 448 229 l 1,5,-1
 566 229 l 1,6,-1
 555 177 l 1,7,-1
 438 177 l 1,8,-1
 400 0 l 1,9,-1
 344 0 l 1,10,-1
 382 177 l 1,0,-1
392 229 m 1,11,-1
 470 589 l 1,12,-1
 466 589 l 1,13,-1
 118 228 l 1,14,-1
 392 229 l 1,11,-1
EndSplineSet
EndChar
StartChar: five
Encoding: 53 53 234
Width: 632
GlyphClass: 1
Flags: W
LayerCount: 2
Fore
SplineSet
139.5 36 m 128,-1,1
 91 84 91 84 86 158 c 1,2,-1
 142 170 l 1,3,4
 144 109 144 109 181 73 c 128,-1,5
 218 37 218 37 289 37 c 0,6,7
 352 37 352 37 395.5 70 c 128,-1,8
 439 103 439 103 461 153 c 128,-1,9
 483 203 483 203 483 254 c 0,10,11
 483 323 483 323 444 361 c 128,-1,12
 405 399 405 399 347 399 c 0,13,14
 297 399 297 399 255 372.5 c 128,-1,15
 213 346 213 346 192 318 c 1,16,-1
 143 332 l 1,17,-1
 255 668 l 1,18,-1
 604 668 l 1,19,-1
 592 615 l 1,20,-1
 289 615 l 1,21,-1
 211 382 l 1,22,23
 272 448 272 448 359 448 c 0,24,25
 440 448 440 448 489.5 398 c 128,-1,26
 539 348 539 348 539 261 c 0,27,28
 539 187 539 187 508 124.5 c 128,-1,29
 477 62 477 62 419.5 25 c 128,-1,30
 362 -12 362 -12 286 -12 c 0,31,0
 188 -12 188 -12 139.5 36 c 128,-1,1
EndSplineSet
EndChar
StartChar: eight
Encoding: 56 56 237
Width: 632
GlyphClass: 1
Flags: W
LayerCount: 2
Fore
SplineSet
179.5 11.5 m 128,-1,1
 128 34 128 34 97.5 75 c 128,-1,2
 67 116 67 116 67 169 c 0,3,4
 67 244 67 244 116 299 c 128,-1,5
 165 354 165 354 243 373 c 1,6,7
 219 394 219 394 206 424 c 128,-1,8
 193 454 193 454 193 488 c 0,9,10
 193 540 193 540 219.5 585 c 128,-1,11
 246 630 246 630 291 656.5 c 128,-1,12
 336 683 336 683 388 683 c 0,13,14
 435 683 435 683 471 662 c 128,-1,15
 507 641 507 641 527 605.5 c 128,-1,16
 547 570 547 570 547 527 c 0,17,18
 547 472 547 472 516 425 c 128,-1,19
 485 378 485 378 435 354 c 1,20,21
 482 331 482 331 509.5 291 c 128,-1,22
 537 251 537 251 537 201 c 0,23,24
 537 139 537 139 503.5 90.5 c 128,-1,25
 470 42 470 42 414 15.5 c 128,-1,26
 358 -11 358 -11 293 -11 c 0,27,0
 231 -11 231 -11 179.5 11.5 c 128,-1,1
386.5 58.5 m 128,-1,29
 429 78 429 78 454.5 114 c 128,-1,30
 480 150 480 150 480 197 c 0,31,32
 480 257 480 257 431.5 294.5 c 128,-1,33
 383 332 383 332 310 332 c 0,34,35
 261 332 261 332 218.5 312.5 c 128,-1,36
 176 293 176 293 150 257 c 128,-1,37
 124 221 124 221 124 174 c 0,38,39
 124 112 124 112 173.5 75.5 c 128,-1,40
 223 39 223 39 294 39 c 0,41,28
 344 39 344 39 386.5 58.5 c 128,-1,29
424 401 m 128,-1,43
 457 420 457 420 476.5 451.5 c 128,-1,44
 496 483 496 483 496 520 c 0,45,46
 496 567 496 567 464.5 599 c 128,-1,47
 433 631 433 631 384 631 c 0,48,49
 348 631 348 631 315.5 612.5 c 128,-1,50
 283 594 283 594 263.5 562.5 c 128,-1,51
 244 531 244 531 244 493 c 0,52,53
 244 446 244 446 274.5 414 c 128,-1,54
 305 382 305 382 355 382 c 0,55,42
 391 382 391 382 424 401 c 128,-1,43
EndSplineSet
EndChar
StartChar: nine
Encoding: 57 57 238
Width: 632
GlyphClass: 1
Flags: W
LayerCount: 2
Fore
SplineSet
323 208 m 0,1,2
 269 208 269 208 220 234.5 c 128,-1,3
 171 261 171 261 141.5 309 c 128,-1,4
 112 357 112 357 112 417 c 0,5,6
 112 486 112 486 147 547.5 c 128,-1,7
 182 609 182 609 242 646 c 128,-1,8
 302 683 302 683 374 683 c 0,9,10
 437 683 437 683 486 654.5 c 128,-1,11
 535 626 535 626 562 577.5 c 128,-1,12
 589 529 589 529 589 471 c 0,13,14
 589 414 589 414 564.5 364 c 128,-1,15
 540 314 540 314 486 252 c 2,16,-1
 265 0 l 1,17,-1
 193 0 l 1,18,-1
 391 220 l 1,19,0
 358 208 358 208 323 208 c 0,1,2
430.5 290.5 m 128,-1,21
 477 318 477 318 505 364.5 c 128,-1,22
 533 411 533 411 533 465 c 0,23,24
 533 510 533 510 512.5 547 c 128,-1,25
 492 584 492 584 455.5 606 c 128,-1,26
 419 628 419 628 372 628 c 0,27,28
 319 628 319 628 272 600.5 c 128,-1,29
 225 573 225 573 196.5 526 c 128,-1,30
 168 479 168 479 168 424 c 0,31,32
 168 378 168 378 189.5 341.5 c 128,-1,33
 211 305 211 305 248 284 c 128,-1,34
 285 263 285 263 331 263 c 0,35,20
 384 263 384 263 430.5 290.5 c 128,-1,21
EndSplineSet
EndChar
StartChar: less
Encoding: 60 60 318
Width: 632
GlyphClass: 1
Flags: W
LayerCount: 2
Fore
SplineSet
80 223 m 1,0,-1
 90 273 l 1,1,-1
 598 486 l 1,2,-1
 584 422 l 1,3,-1
 157 244 l 1,4,-1
 509 67 l 1,5,-1
 496 9 l 1,6,-1
 80 223 l 1,0,-1
EndSplineSet
EndChar
StartChar: at
Encoding: 64 64 288
Width: 632
GlyphClass: 1
Flags: W
LayerCount: 2
Fore
SplineSet
136.5 -55.5 m 128,-1,1
 76 -18 76 -18 44 47.5 c 128,-1,2
 12 113 12 113 12 195 c 0,3,4
 12 298 12 298 56 391.5 c 128,-1,5
 100 485 100 485 180.5 543 c 128,-1,6
 261 601 261 601 363 601 c 0,7,8
 450 601 450 601 510.5 564.5 c 128,-1,9
 571 528 571 528 600.5 468.5 c 128,-1,10
 630 409 630 409 630 338 c 0,11,12
 630 286 630 286 611.5 225 c 128,-1,13
 593 164 593 164 555.5 121 c 128,-1,14
 518 78 518 78 464 78 c 0,15,16
 438 78 438 78 415.5 93 c 128,-1,17
 393 108 393 108 384 133 c 1,18,19
 334 75 334 75 272 75 c 0,20,21
 216 75 216 75 187.5 112.5 c 128,-1,22
 159 150 159 150 159 204 c 0,23,24
 159 259 159 259 183 314 c 128,-1,25
 207 369 207 369 251.5 404.5 c 128,-1,26
 296 440 296 440 356 440 c 0,27,28
 411 440 411 440 475 408 c 1,29,-1
 430 194 l 2,30,31
 428 180 428 180 428 174 c 0,32,33
 428 124 428 124 474 124 c 0,34,35
 509 124 509 124 534 159.5 c 128,-1,36
 559 195 559 195 571 244 c 128,-1,37
 583 293 583 293 583 333 c 0,38,39
 583 429 583 429 527.5 492 c 128,-1,40
 472 555 472 555 358 555 c 0,41,42
 260 555 260 555 192.5 498 c 128,-1,43
 125 441 125 441 92 357.5 c 128,-1,44
 59 274 59 274 59 195 c 0,45,46
 59 126 59 126 84.5 71 c 128,-1,47
 110 16 110 16 160.5 -15.5 c 128,-1,48
 211 -47 211 -47 282 -47 c 0,49,50
 332 -47 332 -47 387 -24 c 1,51,-1
 376 -79 l 1,52,53
 330 -93 330 -93 280 -93 c 0,54,0
 197 -93 197 -93 136.5 -55.5 c 128,-1,1
344.5 148 m 128,-1,56
 376 177 376 177 385 220 c 2,57,-1
 417 380 l 1,58,59
 390 393 390 393 355 393 c 0,60,61
 309 393 309 393 276.5 365 c 128,-1,62
 244 337 244 337 227 293 c 128,-1,63
 210 249 210 249 210 203 c 0,64,65
 210 165 210 165 227 142 c 128,-1,66
 244 119 244 119 278 119 c 0,67,55
 313 119 313 119 344.5 148 c 128,-1,56
EndSplineSet
EndChar
StartChar: B
Encoding: 66 66 13
Width: 632
GlyphClass: 2
Flags: W
AnchorPoint: "Anchor-1" 405 668 basechar 0
AnchorPoint: "Anchor-0" 263 0 basechar 0
LayerCount: 2
Fore
SplineSet
204 668 m 1,0,-1
 408 668 l 2,1,2
 494 668 494 668 539.5 625.5 c 128,-1,3
 585 583 585 583 585 518 c 0,4,5
 585 461 585 461 552.5 410.5 c 128,-1,6
 520 360 520 360 462 344 c 1,7,8
 502 325 502 325 525 288.5 c 128,-1,9
 548 252 548 252 548 207 c 0,10,11
 548 159 548 159 526.5 111.5 c 128,-1,12
 505 64 505 64 456.5 32 c 128,-1,13
 408 0 408 0 331 0 c 2,14,-1
 62 0 l 1,15,-1
 204 668 l 1,0,-1
417.5 73 m 128,-1,17
 454 96 454 96 471.5 131.5 c 128,-1,18
 489 167 489 167 489 205 c 0,19,20
 489 256 489 256 455.5 288.5 c 128,-1,21
 422 321 422 321 355 321 c 2,22,-1
 188 321 l 1,23,-1
 130 50 l 1,24,-1
 328 50 l 2,25,16
 381 50 381 50 417.5 73 c 128,-1,17
491 411 m 128,-1,27
 525 451 525 451 525 509 c 0,28,29
 525 557 525 557 494 587.5 c 128,-1,30
 463 618 463 618 398 618 c 2,31,-1
 252 618 l 1,32,-1
 199 371 l 1,33,-1
 391 371 l 2,34,26
 457 371 457 371 491 411 c 128,-1,27
EndSplineSet
EndChar
StartChar: E
Encoding: 69 69 23
Width: 632
GlyphClass: 2
Flags: W
AnchorPoint: "Anchor-2" 487 10 basechar 0
AnchorPoint: "Anchor-1" 426 668 basechar 0
AnchorPoint: "Anchor-0" 263 0 basechar 0
LayerCount: 2
Fore
SplineSet
225 668 m 1,0,-1
 623 668 l 1,1,-1
 612 618 l 1,2,-1
 273 618 l 1,3,-1
 219 369 l 1,4,-1
 494 369 l 1,5,-1
 484 319 l 1,6,-1
 209 319 l 1,7,-1
 152 50 l 1,8,-1
 495 50 l 1,9,-1
 485 0 l 1,10,-1
 83 0 l 1,11,-1
 225 668 l 1,0,-1
EndSplineSet
EndChar
StartChar: G
Encoding: 71 71 33
Width: 632
GlyphClass: 2
Flags: W
AnchorPoint: "Anchor-1" 408 668 basechar 0
AnchorPoint: "Anchor-0" 287 0 basechar 0
LayerCount: 2
Fore
SplineSet
160 24.5 m 128,-1,1
 107 61 107 61 80.5 123 c 128,-1,2
 54 185 54 185 54 262 c 0,3,4
 54 353 54 353 90.5 450 c 128,-1,5
 127 547 127 547 202.5 613.5 c 128,-1,6
 278 680 278 680 386 680 c 0,7,8
 466 680 466 680 526 639.5 c 128,-1,9
 586 599 586 599 608 522 c 1,10,-1
 556 505 l 1,11,12
 541 567 541 567 494.5 598.5 c 128,-1,13
 448 630 448 630 385 630 c 0,14,15
 297 630 297 630 235.5 572 c 128,-1,16
 174 514 174 514 143.5 429 c 128,-1,17
 113 344 113 344 113 267 c 0,18,19
 113 168 113 168 158.5 103 c 128,-1,20
 204 38 204 38 292 38 c 0,21,22
 334 38 334 38 381 57.5 c 128,-1,23
 428 77 428 77 468 125.5 c 128,-1,24
 508 174 508 174 524 254 c 2,25,-1
 529 279 l 1,26,-1
 332 279 l 1,27,-1
 342 328 l 1,28,-1
 595 328 l 1,29,-1
 525 0 l 1,30,-1
 484 0 l 1,31,-1
 492 93 l 1,32,33
 450 38 450 38 393.5 13 c 128,-1,34
 337 -12 337 -12 287 -12 c 0,35,0
 213 -12 213 -12 160 24.5 c 128,-1,1
EndSplineSet
EndChar
StartChar: H
Encoding: 72 72 37
Width: 632
GlyphClass: 2
Flags: W
AnchorPoint: "Anchor-1" 404 668 basechar 0
AnchorPoint: "Anchor-0" 262 0 basechar 0
LayerCount: 2
Fore
SplineSet
154 668 m 1,0,-1
 212 668 l 1,1,-1
 148 370 l 1,2,-1
 534 370 l 1,3,-1
 598 668 l 1,4,-1
 656 668 l 1,5,-1
 514 0 l 1,6,-1
 456 0 l 1,7,-1
 524 320 l 1,8,-1
 138 320 l 1,9,-1
 70 0 l 1,10,-1
 12 0 l 1,11,-1
 154 668 l 1,0,-1
EndSplineSet
EndChar
StartChar: L
Encoding: 76 76 52
Width: 632
GlyphClass: 2
Flags: W
AnchorPoint: "Anchor-3" 326 459 basechar 0
AnchorPoint: "Anchor-1" 409 668 basechar 0
AnchorPoint: "Anchor-0" 290 0 basechar 0
LayerCount: 2
Fore
SplineSet
235 668 m 1,0,-1
 293 668 l 1,1,-1
 162 50 l 1,2,-1
 539 50 l 1,3,-1
 529 0 l 1,4,-1
 93 0 l 1,5,-1
 235 668 l 1,0,-1
EndSplineSet
EndChar
StartChar: M
Encoding: 77 77 56
Width: 632
GlyphClass: 2
Flags: W
AnchorPoint: "Anchor-1" 405 668 basechar 0
AnchorPoint: "Anchor-0" 263 0 basechar 0
LayerCount: 2
Fore
SplineSet
140 668 m 1,0,-1
 237 668 l 1,1,-1
 278 77 l 1,2,-1
 282 77 l 1,3,-1
 570 668 l 1,4,-1
 670 668 l 1,5,-1
 528 0 l 1,6,-1
 471 0 l 1,7,-1
 600 606 l 1,8,-1
 596 606 l 1,9,-1
 296 0 l 1,10,-1
 232 0 l 1,11,-1
 188 606 l 1,12,-1
 184 606 l 1,13,-1
 55 0 l 1,14,-1
 -2 0 l 1,15,-1
 140 668 l 1,0,-1
EndSplineSet
EndChar
StartChar: Q
Encoding: 81 81 73
Width: 632
GlyphClass: 1
Flags: W
LayerCount: 2
Fore
SplineSet
112 62.5 m 128,-1,1
 53 137 53 137 53 256 c 0,2,3
 53 354 53 354 90.5 452 c 128,-1,4
 128 550 128 550 202 615 c 128,-1,5
 276 680 276 680 380 680 c 0,6,7
 497 680 497 680 556 605.5 c 128,-1,8
 615 531 615 531 615 412 c 0,9,10
 615 331 615 331 589 248 c 128,-1,11
 563 165 563 165 514 104 c 1,12,-1
 582 24 l 1,13,-1
 542 -9 l 1,14,-1
 480 65 l 1,15,16
 398 -12 398 -12 288 -12 c 0,17,0
 171 -12 171 -12 112 62.5 c 128,-1,1
445 105 m 1,19,-1
 302 273 l 1,20,-1
 343 306 l 1,21,-1
 478 146 l 1,22,23
 516 203 516 203 536 275 c 128,-1,24
 556 347 556 347 556 411 c 0,25,26
 556 509 556 509 512 569.5 c 128,-1,27
 468 630 468 630 378 630 c 0,28,29
 290 630 290 630 230 570 c 128,-1,30
 170 510 170 510 141 423 c 128,-1,31
 112 336 112 336 112 257 c 0,32,33
 112 159 112 159 156 98.5 c 128,-1,34
 200 38 200 38 290 38 c 0,35,18
 381 38 381 38 445 105 c 1,19,-1
EndSplineSet
EndChar
StartChar: U
Encoding: 85 85 87
Width: 632
GlyphClass: 2
Flags: W
AnchorPoint: "Anchor-3" 735 668 basechar 0
AnchorPoint: "Anchor-1" 400 668 basechar 0
LayerCount: 2
Fore
SplineSet
77 176 m 0,1,2
 77 215 77 215 88 268 c 2,3,-1
 173 668 l 1,4,-1
 231 668 l 1,5,-1
 144 259 l 2,6,7
 135 219 135 219 135 184 c 0,8,9
 135 38 135 38 296 38 c 0,10,11
 373 38 373 38 419 83.5 c 128,-1,12
 465 129 465 129 484 222 c 2,13,-1
 579 668 l 1,14,-1
 637 668 l 1,15,-1
 542 220 l 2,16,17
 518 102 518 102 459 45 c 128,-1,18
 400 -12 400 -12 299 -12 c 0,19,0
 77 -12 77 -12 77 176 c 0,1,2
EndSplineSet
EndChar
StartChar: W
Encoding: 87 87 97
Width: 632
GlyphClass: 2
Flags: W
AnchorPoint: "Anchor-1" 405 668 basechar 0
AnchorPoint: "Anchor-0" 265 0 basechar 0
LayerCount: 2
Fore
SplineSet
102 668 m 1,0,-1
 157 668 l 1,1,-1
 134 77 l 1,2,-1
 138 77 l 1,3,-1
 373 668 l 1,4,-1
 437 668 l 1,5,-1
 419 77 l 1,6,-1
 423 77 l 1,7,-1
 651 668 l 1,8,-1
 709 668 l 1,9,-1
 442 0 l 1,10,-1
 370 0 l 1,11,-1
 386 564 l 1,12,-1
 382 564 l 1,13,-1
 157 0 l 1,14,-1
 85 0 l 1,15,-1
 102 668 l 1,0,-1
EndSplineSet
EndChar
StartChar: X
Encoding: 88 88 102
Width: 632
GlyphClass: 2
Flags: W
AnchorPoint: "Anchor-1" 405 668 basechar 0
AnchorPoint: "Anchor-0" 263 0 basechar 0
LayerCount: 2
Fore
SplineSet
299 345 m 1,0,-1
 138 668 l 1,1,-1
 203 668 l 1,2,-1
 339 390 l 1,3,-1
 343 390 l 1,4,-1
 599 668 l 1,5,-1
 672 668 l 1,6,-1
 373 345 l 1,7,-1
 544 0 l 1,8,-1
 478 0 l 1,9,-1
 332 299 l 1,10,-1
 328 299 l 1,11,-1
 54 0 l 1,12,-1
 -18 0 l 1,13,-1
 299 345 l 1,0,-1
EndSplineSet
EndChar
StartChar: backslash
Encoding: 92 92 263
Width: 632
GlyphClass: 1
Flags: W
LayerCount: 2
Fore
SplineSet
448 -90 m 1,0,-1
 158 708 l 1,1,-1
 210 708 l 1,2,-1
 500 -90 l 1,3,-1
 448 -90 l 1,0,-1
EndSplineSet
EndChar
StartChar: bracketright
Encoding: 93 93 273
Width: 632
GlyphClass: 1
Flags: W
LayerCount: 2
Fore
SplineSet
84 -120 m 1,0,-1
 287 -120 l 1,1,-1
 454 666 l 1,2,-1
 251 666 l 1,3,-1
 260 708 l 1,4,-1
 518 708 l 1,5,-1
 334 -162 l 1,6,-1
 76 -162 l 1,7,-1
 84 -120 l 1,0,-1
EndSplineSet
EndChar
StartChar: b
Encoding: 98 98 123
Width: 632
GlyphClass: 2
Flags: W
AnchorPoint: "Anchor-1" 356 496 basechar 0
AnchorPoint: "Anchor-0" 251 0 basechar 0
LayerCount: 2
Fore
SplineSet
194 14.5 m 128,-1,1
 147 41 147 41 121 94 c 1,2,-1
 88 0 l 1,3,-1
 46 0 l 1,4,-1
 197 708 l 1,5,-1
 253 708 l 1,6,-1
 190 415 l 1,7,8
 224 457 224 457 273.5 481.5 c 128,-1,9
 323 506 323 506 380 506 c 0,10,11
 471 506 471 506 523.5 449 c 128,-1,12
 576 392 576 392 576 297 c 0,13,14
 576 215 576 215 544 144.5 c 128,-1,15
 512 74 512 74 451 31 c 128,-1,16
 390 -12 390 -12 305 -12 c 0,17,0
 241 -12 241 -12 194 14.5 c 128,-1,1
425.5 77.5 m 128,-1,19
 475 118 475 118 497 177 c 128,-1,20
 519 236 519 236 519 292 c 0,21,22
 519 365 519 365 479 411 c 128,-1,23
 439 457 439 457 369 457 c 256,24,25
 299 457 299 457 249 416.5 c 128,-1,26
 199 376 199 376 174.5 315 c 128,-1,27
 150 254 150 254 150 194 c 0,28,29
 150 122 150 122 189 79.5 c 128,-1,30
 228 37 228 37 300 37 c 0,31,18
 376 37 376 37 425.5 77.5 c 128,-1,19
EndSplineSet
EndChar
StartChar: c
Encoding: 99 99 124
Width: 632
GlyphClass: 2
Flags: W
AnchorPoint: "Anchor-1" 402 496 basechar 0
AnchorPoint: "Anchor-0" 292 0 basechar 0
LayerCount: 2
Fore
SplineSet
200 17.5 m 128,-1,1
 150 47 150 47 124.5 97.5 c 128,-1,2
 99 148 99 148 99 208 c 0,3,4
 99 284 99 284 134 352.5 c 128,-1,5
 169 421 169 421 233 463.5 c 128,-1,6
 297 506 297 506 379 506 c 0,7,8
 444 506 444 506 493.5 477 c 128,-1,9
 543 448 543 448 567 395 c 1,10,-1
 517 377 l 1,11,12
 500 415 500 415 461 436 c 128,-1,13
 422 457 422 457 375 457 c 0,14,15
 309 457 309 457 259.5 422 c 128,-1,16
 210 387 210 387 183.5 330 c 128,-1,17
 157 273 157 273 157 208 c 0,18,19
 157 133 157 133 199.5 85 c 128,-1,20
 242 37 242 37 323 37 c 0,21,22
 372 37 372 37 412 56 c 128,-1,23
 452 75 452 75 475 112 c 1,24,-1
 527 89 l 1,25,26
 494 44 494 44 440.5 16 c 128,-1,27
 387 -12 387 -12 320 -12 c 0,28,0
 250 -12 250 -12 200 17.5 c 128,-1,1
EndSplineSet
EndChar
StartChar: d
Encoding: 100 100 129
Width: 632
GlyphClass: 2
Flags: W
AnchorPoint: "Anchor-3" 621 498 basechar 0
AnchorPoint: "Anchor-1" 446 796 basechar 0
AnchorPoint: "Anchor-0" 277 0 basechar 0
LayerCount: 2
Fore
SplineSet
109.5 45 m 128,-1,1
 57 102 57 102 57 197 c 0,2,3
 57 278 57 278 89 349 c 128,-1,4
 121 420 121 420 183 463 c 128,-1,5
 245 506 245 506 329 506 c 0,6,7
 395 506 395 506 440.5 478 c 128,-1,8
 486 450 486 450 509 397 c 1,9,-1
 576 708 l 1,10,-1
 632 708 l 1,11,-1
 520 183 l 2,12,13
 512 143 512 143 505.5 101.5 c 128,-1,14
 499 60 499 60 498 0 c 1,15,-1
 446 0 l 1,16,-1
 442 78 l 1,17,18
 406 35 406 35 357.5 11.5 c 128,-1,19
 309 -12 309 -12 252 -12 c 0,20,0
 162 -12 162 -12 109.5 45 c 128,-1,1
383.5 78 m 128,-1,22
 433 119 433 119 458 180 c 128,-1,23
 483 241 483 241 483 300 c 0,24,25
 483 372 483 372 444 414.5 c 128,-1,26
 405 457 405 457 333 457 c 0,27,28
 257 457 257 457 207.5 416.5 c 128,-1,29
 158 376 158 376 136 317 c 128,-1,30
 114 258 114 258 114 202 c 0,31,32
 114 129 114 129 154 83 c 128,-1,33
 194 37 194 37 264 37 c 256,34,21
 334 37 334 37 383.5 78 c 128,-1,22
EndSplineSet
EndChar
StartChar: f
Encoding: 102 102 142
Width: 632
GlyphClass: 2
Flags: W
AnchorPoint: "Anchor-1" 413 796 basechar 0
AnchorPoint: "Anchor-0" 244 0 basechar 0
LayerCount: 2
Fore
SplineSet
312 451 m 1,0,-1
 152 451 l 1,1,-1
 162 496 l 1,2,-1
 321 496 l 1,3,-1
 345 608 l 2,4,5
 355 655 355 655 368.5 678 c 128,-1,6
 382 701 382 701 402 708.5 c 128,-1,7
 422 716 422 716 458 716 c 2,8,-1
 649 716 l 1,9,-1
 639 667 l 1,10,-1
 459 667 l 2,11,12
 440 667 440 667 430 662.5 c 128,-1,13
 420 658 420 658 413.5 644.5 c 128,-1,14
 407 631 407 631 400 601 c 2,15,-1
 377 496 l 1,16,-1
 522 496 l 1,17,-1
 512 451 l 1,18,-1
 368 451 l 1,19,-1
 272 0 l 1,20,-1
 216 0 l 1,21,-1
 312 451 l 1,0,-1
EndSplineSet
EndChar
StartChar: g
Encoding: 103 103 143
Width: 632
GlyphClass: 2
Flags: W
AnchorPoint: "Anchor-1" 363 496 basechar 0
AnchorPoint: "Anchor-0" 213 -251 basechar 0
LayerCount: 2
Fore
SplineSet
121.5 -156.5 m 128,-1,1
 60 -127 60 -127 48 -70 c 1,2,-1
 104 -56 l 1,3,4
 113 -96 113 -96 160 -116 c 128,-1,5
 207 -136 207 -136 264 -136 c 0,6,7
 325 -136 325 -136 368 -106 c 128,-1,8
 411 -76 411 -76 423 -17 c 2,9,-1
 445 85 l 1,10,11
 409 48 409 48 362.5 26 c 128,-1,12
 316 4 316 4 260 4 c 0,13,14
 197 4 197 4 153 31 c 128,-1,15
 109 58 109 58 87 104.5 c 128,-1,16
 65 151 65 151 65 208 c 0,17,18
 65 288 65 288 98.5 356.5 c 128,-1,19
 132 425 132 425 194 465.5 c 128,-1,20
 256 506 256 506 336 506 c 0,21,22
 395 506 395 506 443 478 c 128,-1,23
 491 450 491 450 511 401 c 1,24,-1
 545 496 l 1,25,-1
 587 496 l 1,26,-1
 477 -25 l 2,27,28
 461 -103 461 -103 402.5 -144.5 c 128,-1,29
 344 -186 344 -186 254 -186 c 0,30,0
 183 -186 183 -186 121.5 -156.5 c 128,-1,1
403.5 105.5 m 128,-1,32
 459 157 459 157 478 245 c 0,33,34
 484 277 484 277 484 305 c 0,35,36
 484 374 484 374 447 415.5 c 128,-1,37
 410 457 410 457 337 457 c 0,38,39
 270 457 270 457 221.5 423 c 128,-1,40
 173 389 173 389 147.5 333.5 c 128,-1,41
 122 278 122 278 122 213 c 0,42,43
 122 142 122 142 161 98 c 128,-1,44
 200 54 200 54 272 54 c 0,45,31
 348 54 348 54 403.5 105.5 c 128,-1,32
EndSplineSet
EndChar
StartChar: h
Encoding: 104 104 147
Width: 632
GlyphClass: 2
Flags: W
AnchorPoint: "Anchor-1" 427 796 basechar 0
AnchorPoint: "Anchor-0" 258 0 basechar 0
LayerCount: 2
Fore
SplineSet
211 708 m 1,0,-1
 267 708 l 1,1,-1
 206 419 l 1,2,3
 233 452 233 452 281 479 c 128,-1,4
 329 506 329 506 385 506 c 0,5,6
 464 506 464 506 502.5 466 c 128,-1,7
 541 426 541 426 541 363 c 0,8,9
 541 336 541 336 535 309 c 2,10,-1
 469 0 l 1,11,-1
 413 0 l 1,12,-1
 476 298 l 2,13,14
 483 327 483 327 483 357 c 0,15,16
 483 406 483 406 456 431.5 c 128,-1,17
 429 457 429 457 370 457 c 0,18,19
 328 457 328 457 287.5 434.5 c 128,-1,20
 247 412 247 412 217 370 c 128,-1,21
 187 328 187 328 175 273 c 2,22,-1
 117 0 l 1,23,-1
 61 0 l 1,24,-1
 211 708 l 1,0,-1
EndSplineSet
EndChar
StartChar: k
Encoding: 107 107 161
Width: 632
GlyphClass: 2
Flags: W
AnchorPoint: "Anchor-1" 441 796 basechar 0
AnchorPoint: "Anchor-0" 277 0 basechar 0
LayerCount: 2
Fore
SplineSet
249 708 m 1,0,-1
 305 708 l 1,1,-1
 207 247 l 1,2,-1
 513 496 l 1,3,-1
 589 496 l 1,4,-1
 335 292 l 1,5,-1
 515 0 l 1,6,-1
 450 0 l 1,7,-1
 294 260 l 1,8,-1
 191 177 l 1,9,-1
 155 0 l 1,10,-1
 99 0 l 1,11,-1
 249 708 l 1,0,-1
EndSplineSet
EndChar
StartChar: l
Encoding: 108 108 163
Width: 632
GlyphClass: 2
Flags: W
AnchorPoint: "Anchor-3" 418 499 basechar 0
AnchorPoint: "Anchor-1" 383 796 basechar 0
AnchorPoint: "Anchor-0" 318 0 basechar 0
LayerCount: 2
Fore
SplineSet
227 15.5 m 128,-1,1
 203 31 203 31 203 66 c 0,2,3
 203 81 203 81 208 106 c 2,4,-1
 327 663 l 1,5,-1
 212 663 l 1,6,-1
 221 708 l 1,7,-1
 392 708 l 1,8,-1
 264 104 l 2,9,10
 261 91 261 91 261 81 c 0,11,12
 261 63 261 63 273 56 c 128,-1,13
 285 49 285 49 316 49 c 2,14,-1
 487 49 l 1,15,-1
 477 0 l 1,16,-1
 310 0 l 2,17,0
 251 0 251 0 227 15.5 c 128,-1,1
EndSplineSet
EndChar
StartChar: q
Encoding: 113 113 184
Width: 632
GlyphClass: 2
Flags: W
AnchorPoint: "Anchor-1" 384 496 basechar 0
AnchorPoint: "Anchor-0" 279 0 basechar 0
LayerCount: 2
Fore
SplineSet
406 -99 m 0,1,2
 406 -76 406 -76 411 -55 c 2,3,-1
 439 77 l 1,4,5
 403 35 403 35 354.5 11.5 c 128,-1,6
 306 -12 306 -12 250 -12 c 0,7,8
 160 -12 160 -12 107.5 45 c 128,-1,9
 55 102 55 102 55 197 c 0,10,11
 55 278 55 278 87 348.5 c 128,-1,12
 119 419 119 419 180.5 462.5 c 128,-1,13
 242 506 242 506 326 506 c 0,14,15
 392 506 392 506 438.5 478 c 128,-1,16
 485 450 485 450 507 399 c 1,17,-1
 542 496 l 1,18,-1
 584 496 l 1,19,-1
 468 -53 l 2,20,21
 464 -77 464 -77 464 -84 c 0,22,23
 464 -124 464 -124 505 -124 c 0,24,25
 531 -124 531 -124 555 -110 c 1,26,-1
 545 -160 l 1,27,28
 515 -174 515 -174 486 -174 c 0,29,0
 406 -174 406 -174 406 -99 c 0,1,2
381 77.5 m 128,-1,31
 430 118 430 118 455 179.5 c 128,-1,32
 480 241 480 241 480 300 c 0,33,34
 480 372 480 372 441.5 414.5 c 128,-1,35
 403 457 403 457 331 457 c 0,36,37
 255 457 255 457 205.5 416.5 c 128,-1,38
 156 376 156 376 134 317.5 c 128,-1,39
 112 259 112 259 112 202 c 0,40,41
 112 129 112 129 152 83 c 128,-1,42
 192 37 192 37 262 37 c 256,43,30
 332 37 332 37 381 77.5 c 128,-1,31
EndSplineSet
EndChar
StartChar: u
Encoding: 117 117 198
Width: 632
GlyphClass: 2
Flags: W
AnchorPoint: "Anchor-3" 607 496 basechar 0
AnchorPoint: "Anchor-2" 461 10 basechar 0
AnchorPoint: "Anchor-1" 356 496 basechar 0
AnchorPoint: "Anchor-0" 251 0 basechar 0
LayerCount: 2
Fore
SplineSet
135 28.5 m 128,-1,1
 98 69 98 69 98 133 c 0,2,3
 98 160 98 160 104 187 c 2,4,-1
 170 496 l 1,5,-1
 226 496 l 1,6,-1
 163 198 l 2,7,8
 156 167 156 167 156 137 c 0,9,10
 156 37 156 37 262 37 c 0,11,12
 303 37 303 37 341.5 59.5 c 128,-1,13
 380 82 380 82 409 124 c 128,-1,14
 438 166 438 166 450 222 c 2,15,-1
 509 496 l 1,16,-1
 565 496 l 1,17,-1
 459 0 l 1,18,-1
 417 0 l 1,19,-1
 423 79 l 1,20,21
 393 44 393 44 346 16 c 128,-1,22
 299 -12 299 -12 248 -12 c 0,23,0
 172 -12 172 -12 135 28.5 c 128,-1,1
EndSplineSet
EndChar
StartChar: v
Encoding: 118 118 207
Width: 632
GlyphClass: 2
Flags: W
AnchorPoint: "Anchor-1" 370 496 basechar 0
AnchorPoint: "Anchor-0" 264 0 basechar 0
LayerCount: 2
Fore
SplineSet
119 496 m 1,0,-1
 175 496 l 1,1,-1
 274 74 l 1,2,-1
 278 74 l 1,3,-1
 554 496 l 1,4,-1
 619 496 l 1,5,-1
 285 0 l 1,6,-1
 241 0 l 1,7,-1
 119 496 l 1,0,-1
EndSplineSet
EndChar
StartChar: asciitilde
Encoding: 126 126 324
Width: 632
GlyphClass: 1
Flags: W
LayerCount: 2
Fore
SplineSet
119 287.5 m 128,-1,1
 155 318 155 318 208 318 c 0,2,3
 237 318 237 318 264 309.5 c 128,-1,4
 291 301 291 301 328 284 c 0,5,6
 362 269 362 269 385.5 261 c 128,-1,7
 409 253 409 253 432 253 c 0,8,9
 468 253 468 253 489.5 271 c 128,-1,10
 511 289 511 289 523 324 c 1,11,-1
 571 313 l 1,12,13
 554 262 554 262 518 231.5 c 128,-1,14
 482 201 482 201 429 201 c 0,15,16
 400 201 400 201 373 209.5 c 128,-1,17
 346 218 346 218 309 235 c 0,18,19
 275 250 275 250 252 258 c 128,-1,20
 229 266 229 266 205 266 c 0,21,22
 169 266 169 266 147.5 248 c 128,-1,23
 126 230 126 230 114 195 c 1,24,-1
 66 205 l 1,25,0
 83 257 83 257 119 287.5 c 128,-1,1
EndSplineSet
EndChar
StartChar: exclamdown
Encoding: 161 161 255
Width: 632
GlyphClass: 1
Flags: W
LayerCount: 2
Fore
SplineSet
236 1 m 1,0,-1
 318 327 l 1,1,-1
 349 327 l 1,2,-1
 292 1 l 1,3,-1
 256 -170 l 1,4,-1
 200 -170 l 1,5,-1
 236 1 l 1,0,-1
328 428 m 128,-1,7
 314 442 314 442 314 462 c 256,8,9
 314 482 314 482 328 496 c 128,-1,10
 342 510 342 510 362 510 c 256,11,12
 382 510 382 510 396 496 c 128,-1,13
 410 482 410 482 410 462 c 256,14,15
 410 442 410 442 396 428 c 128,-1,16
 382 414 382 414 362 414 c 256,17,6
 342 414 342 414 328 428 c 128,-1,7
EndSplineSet
EndChar
StartChar: yen
Encoding: 165 165 308
Width: 632
GlyphClass: 1
Flags: W
LayerCount: 2
Fore
SplineSet
253 92 m 1,0,-1
 92 92 l 1,1,-1
 100 131 l 1,2,-1
 261 131 l 1,3,-1
 282 229 l 1,4,-1
 121 229 l 1,5,-1
 129 268 l 1,6,-1
 283 268 l 1,7,-1
 141 668 l 1,8,-1
 200 668 l 1,9,-1
 325 312 l 1,10,-1
 329 312 l 1,11,-1
 603 668 l 1,12,-1
 669 668 l 1,13,-1
 357 268 l 1,14,-1
 510 268 l 1,15,-1
 502 229 l 1,16,-1
 343 229 l 1,17,-1
 323 131 l 1,18,-1
 481 131 l 1,19,-1
 473 92 l 1,20,-1
 314 92 l 1,21,-1
 295 0 l 1,22,-1
 233 0 l 1,23,-1
 253 92 l 1,0,-1
EndSplineSet
EndChar
StartChar: section
Encoding: 167 167 291
Width: 632
GlyphClass: 1
Flags: W
LayerCount: 2
Fore
SplineSet
131 -140.5 m 128,-1,1
 82 -108 82 -108 72 -48 c 1,2,-1
 132 -35 l 1,3,4
 138 -83 138 -83 170.5 -105 c 128,-1,5
 203 -127 203 -127 249 -127 c 0,6,7
 298 -127 298 -127 335.5 -102 c 128,-1,8
 373 -77 373 -77 373 -39 c 0,9,10
 373 -15 373 -15 354 8.5 c 128,-1,11
 335 32 335 32 285 70 c 2,12,-1
 201 132 l 2,13,14
 149 171 149 171 126 202 c 128,-1,15
 103 233 103 233 103 269 c 0,16,17
 103 330 103 330 150 371 c 128,-1,18
 197 412 197 412 270 433 c 1,19,20
 210 489 210 489 210 539 c 0,21,22
 210 582 210 582 235 614 c 128,-1,23
 260 646 260 646 301.5 663 c 128,-1,24
 343 680 343 680 389 680 c 0,25,26
 454 680 454 680 503 647.5 c 128,-1,27
 552 615 552 615 562 555 c 1,28,-1
 502 542 l 1,29,30
 496 590 496 590 463.5 612 c 128,-1,31
 431 634 431 634 385 634 c 0,32,33
 337 634 337 634 299 608.5 c 128,-1,34
 261 583 261 583 261 545 c 0,35,36
 261 521 261 521 279.5 498.5 c 128,-1,37
 298 476 298 476 349 437 c 2,38,-1
 433 375 l 2,39,40
 485 336 485 336 508 305 c 128,-1,41
 531 274 531 274 531 238 c 0,42,43
 531 177 531 177 484 136 c 128,-1,44
 437 95 437 95 364 74 c 1,45,46
 424 18 424 18 424 -32 c 0,47,48
 424 -75 424 -75 399 -107 c 128,-1,49
 374 -139 374 -139 332.5 -156 c 128,-1,50
 291 -173 291 -173 245 -173 c 0,51,0
 180 -173 180 -173 131 -140.5 c 128,-1,1
435 151.5 m 128,-1,53
 478 180 478 180 478 227 c 0,54,55
 478 255 478 255 457 281 c 128,-1,56
 436 307 436 307 392 340 c 2,57,-1
 308 403 l 1,58,59
 242 384 242 384 199 355.5 c 128,-1,60
 156 327 156 327 156 280 c 0,61,62
 156 252 156 252 177 226 c 128,-1,63
 198 200 198 200 242 167 c 2,64,-1
 326 104 l 1,65,52
 392 123 392 123 435 151.5 c 128,-1,53
EndSplineSet
EndChar
StartChar: ordfeminine
Encoding: 170 170 223
Width: 632
GlyphClass: 1
Flags: W
LayerCount: 2
Fore
SplineSet
235.5 356.5 m 128,-1,1
 206 378 206 378 206 421 c 0,2,3
 206 484 206 484 267.5 512 c 128,-1,4
 329 540 329 540 463 550 c 1,5,6
 466 568 466 568 466 582 c 0,7,8
 466 651 466 651 389 651 c 0,9,10
 354 651 354 651 330 636.5 c 128,-1,11
 306 622 306 622 295 595 c 1,12,-1
 253 605 l 1,13,14
 267 644 267 644 304 668.5 c 128,-1,15
 341 693 341 693 392 693 c 0,16,17
 452 693 452 693 482.5 663.5 c 128,-1,18
 513 634 513 634 513 584 c 0,19,20
 513 566 513 566 508 541 c 2,21,-1
 487 443 l 2,22,23
 477 401 477 401 477 376 c 0,24,25
 477 360 477 360 482 343 c 1,26,-1
 434 343 l 1,27,-1
 431 384 l 1,28,29
 405 357 405 357 376.5 346 c 128,-1,30
 348 335 348 335 316 335 c 0,31,0
 265 335 265 335 235.5 356.5 c 128,-1,1
406 403 m 128,-1,33
 439 432 439 432 448 477 c 2,34,-1
 455 510 l 1,35,36
 353 505 353 505 304.5 484 c 128,-1,37
 256 463 256 463 256 420 c 0,38,39
 256 396 256 396 274.5 385 c 128,-1,40
 293 374 293 374 322 374 c 0,41,32
 373 374 373 374 406 403 c 128,-1,33
EndSplineSet
EndChar
StartChar: guillemotleft
Encoding: 171 171 280
Width: 632
GlyphClass: 1
Flags: W
LayerCount: 2
Fore
SplineSet
307 245 m 1,0,-1
 497 460 l 1,1,-1
 563 460 l 1,2,-1
 367 240 l 1,3,-1
 473 40 l 1,4,-1
 415 40 l 1,5,-1
 307 245 l 1,0,-1
115 250 m 1,6,-1
 305 460 l 1,7,-1
 371 460 l 1,8,-1
 175 245 l 1,9,-1
 281 40 l 1,10,-1
 223 40 l 1,11,-1
 115 250 l 1,6,-1
EndSplineSet
EndChar
StartChar: registered
Encoding: 174 174 293
Width: 632
GlyphClass: 1
Flags: W
LayerCount: 2
Fore
SplineSet
179.5 33 m 128,-1,1
 112 79 112 79 75 158.5 c 128,-1,2
 38 238 38 238 38 334 c 256,3,4
 38 430 38 430 75 509.5 c 128,-1,5
 112 589 112 589 179.5 635 c 128,-1,6
 247 681 247 681 334 681 c 256,7,8
 421 681 421 681 488.5 635 c 128,-1,9
 556 589 556 589 593 509.5 c 128,-1,10
 630 430 630 430 630 334 c 256,11,12
 630 238 630 238 593 158.5 c 128,-1,13
 556 79 556 79 488.5 33 c 128,-1,14
 421 -13 421 -13 334 -13 c 256,15,0
 247 -13 247 -13 179.5 33 c 128,-1,1
463.5 75 m 128,-1,17
 520 115 520 115 550.5 183 c 128,-1,18
 581 251 581 251 581 334 c 256,19,20
 581 417 581 417 550.5 485 c 128,-1,21
 520 553 520 553 463.5 593 c 128,-1,22
 407 633 407 633 334 633 c 256,23,24
 261 633 261 633 204.5 593 c 128,-1,25
 148 553 148 553 117.5 485 c 128,-1,26
 87 417 87 417 87 334 c 256,27,28
 87 251 87 251 117.5 183 c 128,-1,29
 148 115 148 115 204.5 75 c 128,-1,30
 261 35 261 35 334 35 c 256,31,16
 407 35 407 35 463.5 75 c 128,-1,17
225 529 m 1,32,-1
 336 529 l 2,33,34
 395 529 395 529 427.5 499 c 128,-1,35
 460 469 460 469 460 417 c 0,36,37
 460 380 460 380 441.5 352.5 c 128,-1,38
 423 325 423 325 385 311 c 1,39,-1
 477 162 l 1,40,-1
 415 162 l 1,41,-1
 330 302 l 1,42,-1
 280 302 l 1,43,-1
 280 162 l 1,44,-1
 225 162 l 1,45,-1
 225 529 l 1,32,-1
404 417 m 0,47,48
 404 453 404 453 384.5 468.5 c 128,-1,49
 365 484 365 484 328 484 c 2,50,-1
 280 484 l 1,51,-1
 280 348 l 1,52,-1
 333 348 l 2,53,46
 404 348 404 348 404 417 c 0,47,48
EndSplineSet
EndChar
StartChar: degree
Encoding: 176 176 295
Width: 632
GlyphClass: 1
Flags: W
LayerCount: 2
Fore
SplineSet
295 471 m 128,-1,1
 259 507 259 507 259 557 c 0,2,3
 259 609 259 609 295 645 c 128,-1,4
 331 681 331 681 382 681 c 0,5,6
 415 681 415 681 443.5 664.5 c 128,-1,7
 472 648 472 648 488.5 619.5 c 128,-1,8
 505 591 505 591 505 557 c 0,9,10
 505 524 505 524 488.5 496 c 128,-1,11
 472 468 472 468 443.5 451.5 c 128,-1,12
 415 435 415 435 382 435 c 0,13,0
 331 435 331 435 295 471 c 128,-1,1
438 501.5 m 128,-1,15
 461 525 461 525 461 557 c 0,16,17
 461 591 461 591 438 613.5 c 128,-1,18
 415 636 415 636 382 636 c 256,19,20
 349 636 349 636 326 613 c 128,-1,21
 303 590 303 590 303 557 c 0,22,23
 303 525 303 525 326.5 501.5 c 128,-1,24
 350 478 350 478 382 478 c 0,25,14
 415 478 415 478 438 501.5 c 128,-1,15
EndSplineSet
EndChar
StartChar: uni00B2
Encoding: 178 178 245
Width: 632
GlyphClass: 1
Flags: W
LayerCount: 2
Fore
SplineSet
260 444 m 2,0,1
 334 496 334 496 378.5 532 c 128,-1,2
 423 568 423 568 453.5 608.5 c 128,-1,3
 484 649 484 649 484 688 c 0,4,5
 484 715 484 715 464.5 730 c 128,-1,6
 445 745 445 745 412 745 c 0,7,8
 383 745 383 745 360 728 c 128,-1,9
 337 711 337 711 327 673 c 1,10,-1
 277 682 l 1,11,12
 290 730 290 730 327 758 c 128,-1,13
 364 786 364 786 418 786 c 0,14,15
 469 786 469 786 503 758.5 c 128,-1,16
 537 731 537 731 537 688 c 0,17,18
 537 635 537 635 491 581.5 c 128,-1,19
 445 528 445 528 395 491.5 c 128,-1,20
 345 455 345 455 273 408 c 1,21,-1
 494 408 l 1,22,-1
 484 364 l 1,23,-1
 199 364 l 1,24,-1
 208 406 l 1,25,-1
 260 444 l 2,0,1
EndSplineSet
EndChar
StartChar: paragraph
Encoding: 182 182 290
Width: 632
GlyphClass: 1
Flags: W
LayerCount: 2
Fore
SplineSet
187.5 358 m 128,-1,1
 150 403 150 403 150 461 c 0,2,3
 150 483 150 483 154 500 c 0,4,5
 170 577 170 577 234.5 622.5 c 128,-1,6
 299 668 299 668 388 668 c 2,7,-1
 631 668 l 1,8,-1
 620 621 l 1,9,-1
 584 621 l 1,10,-1
 418 -162 l 1,11,-1
 364 -162 l 1,12,-1
 530 621 l 1,13,-1
 416 621 l 1,14,-1
 250 -162 l 1,15,-1
 196 -162 l 1,16,-1
 293 295 l 1,17,0
 225 313 225 313 187.5 358 c 128,-1,1
EndSplineSet
EndChar
StartChar: ordmasculine
Encoding: 186 186 224
Width: 632
GlyphClass: 1
Flags: W
LayerCount: 2
Fore
SplineSet
249 374.5 m 128,-1,1
 211 414 211 414 211 479 c 0,2,3
 211 533 211 533 234 582.5 c 128,-1,4
 257 632 257 632 299 662.5 c 128,-1,5
 341 693 341 693 396 693 c 0,6,7
 458 693 458 693 496 653 c 128,-1,8
 534 613 534 613 534 548 c 0,9,10
 534 494 534 494 511.5 445 c 128,-1,11
 489 396 489 396 447 365.5 c 128,-1,12
 405 335 405 335 349 335 c 0,13,0
 287 335 287 335 249 374.5 c 128,-1,1
427.5 405.5 m 128,-1,15
 457 434 457 434 470 473.5 c 128,-1,16
 483 513 483 513 483 546 c 0,17,18
 483 594 483 594 459 622.5 c 128,-1,19
 435 651 435 651 393 651 c 0,20,21
 347 651 347 651 317.5 622 c 128,-1,22
 288 593 288 593 275 553.5 c 128,-1,23
 262 514 262 514 262 481 c 0,24,25
 262 433 262 433 286 405 c 128,-1,26
 310 377 310 377 352 377 c 0,27,14
 398 377 398 377 427.5 405.5 c 128,-1,15
EndSplineSet
EndChar
StartChar: guillemotright
Encoding: 187 187 281
Width: 632
GlyphClass: 1
Flags: W
LayerCount: 2
Fore
SplineSet
458 255 m 1,0,-1
 352 460 l 1,1,-1
 410 460 l 1,2,-1
 518 250 l 1,3,-1
 328 40 l 1,4,-1
 262 40 l 1,5,-1
 458 255 l 1,0,-1
266 260 m 1,6,-1
 160 460 l 1,7,-1
 218 460 l 1,8,-1
 326 255 l 1,9,-1
 136 40 l 1,10,-1
 70 40 l 1,11,-1
 266 260 l 1,6,-1
EndSplineSet
EndChar
StartChar: onehalf
Encoding: 189 189 241
Width: 632
GlyphClass: 3
Flags: W
LayerCount: 2
Fore
SplineSet
187 593 m 1,0,-1
 119 593 l 1,1,-1
 127 626 l 1,2,3
 189 626 189 626 211 668 c 1,4,-1
 254 668 l 1,5,-1
 190 365 l 1,6,-1
 140 365 l 1,7,-1
 187 593 l 1,0,-1
526 668 m 1,8,-1
 586 668 l 1,9,-1
 82 0 l 1,10,-1
 22 0 l 1,11,-1
 526 668 l 1,8,-1
339 55 m 2,12,13
 410 97 410 97 463 140 c 128,-1,14
 516 183 516 183 516 226 c 0,15,16
 516 245 516 245 504.5 256 c 128,-1,17
 493 267 493 267 470 267 c 0,18,19
 425 267 425 267 411 219 c 1,20,-1
 364 234 l 1,21,22
 396 308 396 308 473 308 c 0,23,24
 519 308 519 308 544 286.5 c 128,-1,25
 569 265 569 265 569 232 c 0,26,27
 569 179 569 179 519.5 134.5 c 128,-1,28
 470 90 470 90 399 47 c 1,29,-1
 539 47 l 1,30,-1
 529 0 l 1,31,-1
 307 0 l 1,32,-1
 316 41 l 1,33,-1
 339 55 l 2,12,13
EndSplineSet
Ligature2: "'frac' Diagonal Fractions in Latin lookup 7 subtable" one slash two
EndChar
StartChar: threequarters
Encoding: 190 190 243
Width: 632
GlyphClass: 3
Flags: W
LayerCount: 2
Fore
SplineSet
567 668 m 1,0,-1
 627 668 l 1,1,-1
 123 0 l 1,2,-1
 63 0 l 1,3,-1
 567 668 l 1,0,-1
461 65 m 1,4,-1
 305 65 l 1,5,-1
 314 110 l 1,6,-1
 510 304 l 1,7,-1
 560 304 l 1,8,-1
 520 111 l 1,9,-1
 568 111 l 1,10,-1
 559 65 l 1,11,-1
 510 65 l 1,12,-1
 496 0 l 1,13,-1
 447 0 l 1,14,-1
 461 65 l 1,4,-1
470 111 m 1,15,-1
 496 231 l 1,16,-1
 494 231 l 1,17,-1
 373 111 l 1,18,-1
 470 111 l 1,15,-1
113 386 m 128,-1,20
 83 404 83 404 75 440 c 1,21,-1
 124 453 l 1,22,23
 132 408 132 408 181 408 c 0,24,25
 210 408 210 408 227 422.5 c 128,-1,26
 244 437 244 437 244 464 c 0,27,28
 244 488 244 488 222.5 498.5 c 128,-1,29
 201 509 201 509 166 507 c 1,30,-1
 175 551 l 1,31,32
 182 550 182 550 195 550 c 0,33,34
 230 550 230 550 248.5 562.5 c 128,-1,35
 267 575 267 575 267 600 c 0,36,37
 267 618 267 618 253.5 628.5 c 128,-1,38
 240 639 240 639 220 639 c 0,39,40
 172 639 172 639 155 597 c 1,41,-1
 107 612 l 1,42,43
 122 644 122 644 151 662 c 128,-1,44
 180 680 180 680 219 680 c 0,45,46
 260 680 260 680 289.5 660.5 c 128,-1,47
 319 641 319 641 319 605 c 0,48,49
 319 580 319 580 303 558 c 128,-1,50
 287 536 287 536 260 526 c 1,51,52
 276 518 276 518 286 501 c 128,-1,53
 296 484 296 484 296 467 c 0,54,55
 296 424 296 424 265 396 c 128,-1,56
 234 368 234 368 184 368 c 0,57,19
 143 368 143 368 113 386 c 128,-1,20
EndSplineSet
Ligature2: "'frac' Diagonal Fractions in Latin lookup 7 subtable" three slash four
EndChar
StartChar: Ccedilla
Encoding: 199 199 17
Width: 632
GlyphClass: 2
Flags: W
AnchorPoint: "Anchor-1" 426 668 basechar 0
LayerCount: 2
Fore
SplineSet
196 -147 m 1,1,-1
 214 -123 l 1,2,3
 246 -145 246 -145 277 -145 c 0,4,5
 299 -145 299 -145 313 -133.5 c 128,-1,6
 327 -122 327 -122 327 -106 c 0,7,8
 327 -77 327 -77 285 -77 c 2,9,-1
 258 -79 l 2,10,11
 251 -79 251 -79 247 -76 c 128,-1,12
 243 -73 243 -73 243 -68 c 0,13,14
 243 -59 243 -59 250 -52 c 2,15,-1
 284 -11 l 1,16,17
 177 -1 177 -1 122 74 c 128,-1,18
 67 149 67 149 67 263 c 0,19,20
 67 358 67 358 106.5 455 c 128,-1,21
 146 552 146 552 222.5 616 c 128,-1,22
 299 680 299 680 404 680 c 0,23,24
 481 680 481 680 541 640 c 128,-1,25
 601 600 601 600 624 527 c 1,26,-1
 572 509 l 1,27,28
 555 565 555 565 509.5 597.5 c 128,-1,29
 464 630 464 630 402 630 c 0,30,31
 314 630 314 630 251.5 572.5 c 128,-1,32
 189 515 189 515 157.5 430.5 c 128,-1,33
 126 346 126 346 126 267 c 0,34,35
 126 166 126 166 174 102 c 128,-1,36
 222 38 222 38 318 38 c 0,37,38
 434 38 434 38 513 154 c 1,39,-1
 563 132 l 1,40,41
 474 -9 474 -9 320 -12 c 1,42,-1
 290 -47 l 1,43,44
 301 -44 301 -44 311 -44 c 0,45,46
 338 -44 338 -44 355 -59.5 c 128,-1,47
 372 -75 372 -75 372 -97 c 0,48,49
 372 -132 372 -132 345 -154.5 c 128,-1,50
 318 -177 318 -177 279 -177 c 0,51,0
 237 -177 237 -177 196 -147 c 1,1,-1
EndSplineSet
EndChar
StartChar: Eth
Encoding: 208 208 22
Width: 632
GlyphClass: 1
Flags: W
LayerCount: 2
Fore
SplineSet
94 326 m 1,0,-1
 39 326 l 1,1,-1
 49 376 l 1,2,-1
 104 376 l 1,3,-1
 166 668 l 1,4,-1
 277 668 l 2,5,6
 440 668 440 668 526.5 601 c 128,-1,7
 613 534 613 534 613 403 c 0,8,9
 613 307 613 307 577.5 215 c 128,-1,10
 542 123 542 123 460 61.5 c 128,-1,11
 378 0 378 0 248 0 c 2,12,-1
 24 0 l 1,13,-1
 94 326 l 1,0,-1
426.5 102.5 m 128,-1,15
 495 155 495 155 524.5 235 c 128,-1,16
 554 315 554 315 554 403 c 0,17,18
 554 618 554 618 276 618 c 2,19,-1
 213 618 l 1,20,-1
 162 376 l 1,21,-1
 362 376 l 1,22,-1
 351 326 l 1,23,-1
 151 326 l 1,24,-1
 92 50 l 1,25,-1
 249 50 l 2,26,14
 358 50 358 50 426.5 102.5 c 128,-1,15
EndSplineSet
EndChar
StartChar: Thorn
Encoding: 222 222 72
Width: 632
GlyphClass: 2
Flags: W
AnchorPoint: "Anchor-1" 387 668 basechar 0
AnchorPoint: "Anchor-0" 245 0 basechar 0
LayerCount: 2
Fore
SplineSet
207 668 m 1,0,-1
 265 668 l 1,1,-1
 236 532 l 1,2,-1
 359 532 l 2,3,4
 465 532 465 532 524.5 487 c 128,-1,5
 584 442 584 442 584 363 c 0,6,7
 584 264 584 264 521 205.5 c 128,-1,8
 458 147 458 147 349 147 c 2,9,-1
 154 147 l 1,10,-1
 123 0 l 1,11,-1
 65 0 l 1,12,-1
 207 668 l 1,0,-1
479.5 238.5 m 128,-1,14
 525 280 525 280 525 359 c 0,15,16
 525 420 525 420 480.5 451 c 128,-1,17
 436 482 436 482 355 482 c 2,18,-1
 226 482 l 1,19,-1
 165 197 l 1,20,-1
 353 197 l 2,21,13
 434 197 434 197 479.5 238.5 c 128,-1,14
EndSplineSet
EndChar
StartChar: germandbls
Encoding: 223 223 193
Width: 632
GlyphClass: 1
Flags: W
LayerCount: 2
Fore
SplineSet
245 -8 m 1,1,-1
 241 43 l 1,2,3
 282 35 282 35 317 35 c 0,4,5
 380 35 380 35 425 60 c 128,-1,6
 470 85 470 85 493.5 128 c 128,-1,7
 517 171 517 171 517 224 c 0,8,9
 517 272 517 272 489.5 309 c 128,-1,10
 462 346 462 346 417.5 366 c 128,-1,11
 373 386 373 386 323 386 c 2,12,-1
 318 386 l 1,13,-1
 329 436 l 1,14,-1
 347 435 l 2,15,16
 407 435 407 435 455 463 c 128,-1,17
 503 491 503 491 503 543 c 0,18,19
 503 585 503 585 462 608 c 128,-1,20
 421 631 421 631 369 631 c 0,21,22
 235 631 235 631 203 486 c 2,23,-1
 100 0 l 1,24,-1
 44 0 l 1,25,-1
 149 493 l 2,26,27
 168 580 168 580 224.5 630 c 128,-1,28
 281 680 281 680 371 680 c 0,29,30
 422 680 422 680 464.5 663 c 128,-1,31
 507 646 507 646 531.5 615.5 c 128,-1,32
 556 585 556 585 556 546 c 0,33,34
 556 495 556 495 522.5 458.5 c 128,-1,35
 489 422 489 422 430 407 c 1,36,37
 501 386 501 386 537 337 c 128,-1,38
 573 288 573 288 573 225 c 0,39,40
 573 163 573 163 543 108.5 c 128,-1,41
 513 54 513 54 454 20 c 128,-1,42
 395 -14 395 -14 313 -14 c 0,43,0
 272 -14 272 -14 245 -8 c 1,1,-1
EndSplineSet
EndChar
StartChar: ae
Encoding: 230 230 122
Width: 632
GlyphClass: 2
Flags: W
AnchorPoint: "Anchor-1" 369 496 basechar 0
AnchorPoint: "Anchor-0" 263 0 basechar 0
LayerCount: 2
Fore
SplineSet
19.5 18.5 m 128,-1,1
 -18 49 -18 49 -18 107 c 0,2,3
 -18 186 -18 186 50 232 c 128,-1,4
 118 278 118 278 279 286 c 1,5,-1
 283 305 l 2,6,7
 291 342 291 342 291 370 c 0,8,9
 291 463 291 463 215 463 c 0,10,11
 150 463 150 463 111 372 c 1,12,-1
 57 384 l 1,13,14
 115 506 115 506 221 506 c 0,15,16
 272 506 272 506 300.5 479.5 c 128,-1,17
 329 453 329 453 336 407 c 1,18,19
 367 455 367 455 408 480.5 c 128,-1,20
 449 506 449 506 494 506 c 0,21,22
 563 506 563 506 597 456.5 c 128,-1,23
 631 407 631 407 631 330 c 0,24,25
 631 291 631 291 621 243 c 1,26,-1
 320 243 l 1,27,28
 315 211 315 211 315 182 c 0,29,30
 315 119 315 119 340 76 c 128,-1,31
 365 33 365 33 422 33 c 0,32,33
 451 33 451 33 475 48.5 c 128,-1,34
 499 64 499 64 526 98 c 1,35,-1
 572 79 l 1,36,37
 542 37 542 37 505 12.5 c 128,-1,38
 468 -12 468 -12 419 -12 c 0,39,40
 359 -12 359 -12 323.5 18.5 c 128,-1,41
 288 49 288 49 275 102 c 1,42,43
 217 -12 217 -12 112 -12 c 0,44,0
 57 -12 57 -12 19.5 18.5 c 128,-1,1
203.5 67.5 m 128,-1,46
 243 104 243 104 258 177 c 2,47,-1
 270 243 l 1,48,49
 143 237 143 237 88.5 204 c 128,-1,50
 34 171 34 171 34 112 c 0,51,52
 34 73 34 73 57 52 c 128,-1,53
 80 31 80 31 119 31 c 0,54,45
 164 31 164 31 203.5 67.5 c 128,-1,46
580 337 m 0,56,57
 580 391 580 391 557 426 c 128,-1,58
 534 461 534 461 487 461 c 0,59,60
 430 461 430 461 390 411 c 128,-1,61
 350 361 350 361 330 286 c 1,62,-1
 575 286 l 1,63,55
 580 314 580 314 580 337 c 0,56,57
EndSplineSet
EndChar
StartChar: eth
Encoding: 240 240 132
Width: 632
GlyphClass: 1
Flags: W
LayerCount: 2
Fore
SplineSet
164.5 14 m 128,-1,1
 114 40 114 40 85 87.5 c 128,-1,2
 56 135 56 135 56 197 c 0,3,4
 56 266 56 266 89 327.5 c 128,-1,5
 122 389 122 389 181.5 426.5 c 128,-1,6
 241 464 241 464 317 464 c 256,7,8
 393 464 393 464 450.5 423.5 c 128,-1,9
 508 383 508 383 523 313 c 1,10,11
 534 377 534 377 534 427 c 0,12,13
 534 525 534 525 492 587 c 1,14,-1
 426 534 l 1,15,-1
 400 565 l 1,16,-1
 464 616 l 1,17,18
 435 642 435 642 390.5 660.5 c 128,-1,19
 346 679 346 679 287 680 c 1,20,-1
 295 725 l 1,21,22
 418 721 418 721 502 651 c 1,23,-1
 563 700 l 1,24,-1
 588 668 l 1,25,-1
 531 621 l 1,26,27
 582 548 582 548 582 438 c 0,28,29
 582 342 582 342 553.5 238.5 c 128,-1,30
 525 135 525 135 457 61.5 c 128,-1,31
 389 -12 389 -12 280 -12 c 0,32,0
 215 -12 215 -12 164.5 14 c 128,-1,1
386.5 67 m 128,-1,34
 434 97 434 97 460.5 147 c 128,-1,35
 487 197 487 197 487 253 c 0,36,37
 487 298 487 298 466 335 c 128,-1,38
 445 372 445 372 406.5 393 c 128,-1,39
 368 414 368 414 319 414 c 0,40,41
 259 414 259 414 212 385.5 c 128,-1,42
 165 357 165 357 139 308.5 c 128,-1,43
 113 260 113 260 113 202 c 0,44,45
 113 127 113 127 159.5 82 c 128,-1,46
 206 37 206 37 280 37 c 0,47,33
 339 37 339 37 386.5 67 c 128,-1,34
EndSplineSet
EndChar
StartChar: divide
Encoding: 247 247 314
Width: 632
GlyphClass: 1
Flags: W
LayerCount: 2
Fore
SplineSet
73 274 m 1,0,-1
 569 274 l 1,1,-1
 559 222 l 1,2,-1
 63 222 l 1,3,-1
 73 274 l 1,0,-1
240 43.5 m 128,-1,5
 223 60 223 60 223 85 c 0,6,7
 223 108 223 108 240 124.5 c 128,-1,8
 257 141 257 141 281 141 c 256,9,10
 305 141 305 141 321 124.5 c 128,-1,11
 337 108 337 108 337 85 c 0,12,13
 337 60 337 60 321 43.5 c 128,-1,14
 305 27 305 27 281 27 c 256,15,4
 257 27 257 27 240 43.5 c 128,-1,5
310.5 371.5 m 128,-1,17
 294 387 294 387 294 411 c 0,18,19
 294 436 294 436 310.5 453 c 128,-1,20
 327 470 327 470 351 470 c 256,21,22
 375 470 375 470 391.5 453 c 128,-1,23
 408 436 408 436 408 411 c 0,24,25
 408 387 408 387 391.5 371.5 c 128,-1,26
 375 356 375 356 351 356 c 256,27,16
 327 356 327 356 310.5 371.5 c 128,-1,17
EndSplineSet
EndChar
StartChar: thorn
Encoding: 254 254 183
Width: 632
GlyphClass: 2
Flags: W
AnchorPoint: "Anchor-1" 367 496 basechar 0
AnchorPoint: "Anchor-0" 262 0 basechar 0
LayerCount: 2
Fore
SplineSet
197 708 m 1,0,-1
 253 708 l 1,1,-1
 191 415 l 1,2,3
 225 457 225 457 274.5 481.5 c 128,-1,4
 324 506 324 506 382 506 c 0,5,6
 472 506 472 506 524.5 449 c 128,-1,7
 577 392 577 392 577 297 c 0,8,9
 577 216 577 216 545 145 c 128,-1,10
 513 74 513 74 451.5 31 c 128,-1,11
 390 -12 390 -12 306 -12 c 0,12,13
 243 -12 243 -12 195.5 14.5 c 128,-1,14
 148 41 148 41 123 92 c 1,15,-1
 69 -162 l 1,16,-1
 13 -162 l 1,17,-1
 197 708 l 1,0,-1
426.5 77.5 m 128,-1,19
 476 118 476 118 498 177 c 128,-1,20
 520 236 520 236 520 292 c 0,21,22
 520 365 520 365 480 411 c 128,-1,23
 440 457 440 457 370 457 c 256,24,25
 300 457 300 457 250 416.5 c 128,-1,26
 200 376 200 376 175.5 315 c 128,-1,27
 151 254 151 254 151 194 c 0,28,29
 151 122 151 122 190 79.5 c 128,-1,30
 229 37 229 37 301 37 c 0,31,18
 377 37 377 37 426.5 77.5 c 128,-1,19
EndSplineSet
EndChar
StartChar: dcaron
Encoding: 271 271 130
Width: 632
GlyphClass: 1
Flags: W
LayerCount: 2
Fore
SplineSet
87 45 m 128,-1,1
 41 102 41 102 41 191 c 0,2,3
 41 273 41 273 71 345 c 128,-1,4
 101 417 101 417 158.5 461.5 c 128,-1,5
 216 506 216 506 294 506 c 0,6,7
 353 506 353 506 394 478 c 128,-1,8
 435 450 435 450 453 397 c 1,9,-1
 519 708 l 1,10,-1
 575 708 l 1,11,-1
 464 183 l 2,12,13
 456 143 456 143 449.5 101.5 c 128,-1,14
 443 60 443 60 442 0 c 1,15,-1
 390 0 l 1,16,-1
 385 77 l 1,17,18
 351 36 351 36 308 12 c 128,-1,19
 265 -12 265 -12 215 -12 c 0,20,0
 133 -12 133 -12 87 45 c 128,-1,1
337 82 m 128,-1,22
 382 127 382 127 404.5 191 c 128,-1,23
 427 255 427 255 427 311 c 0,24,25
 427 378 427 378 394.5 417.5 c 128,-1,26
 362 457 362 457 297 457 c 0,27,28
 231 457 231 457 186 416 c 128,-1,29
 141 375 141 375 119.5 314.5 c 128,-1,30
 98 254 98 254 98 195 c 0,31,32
 98 124 98 124 132 80.5 c 128,-1,33
 166 37 166 37 229 37 c 256,34,21
 292 37 292 37 337 82 c 128,-1,22
653 708.5 m 128,-1,36
 662 720 662 720 676 720 c 0,37,38
 685 720 685 720 691.5 716 c 128,-1,39
 698 712 698 712 698 702 c 256,40,41
 698 692 698 692 691.5 678.5 c 128,-1,42
 685 665 685 665 679 654 c 2,43,-1
 619 542 l 1,44,-1
 589 542 l 1,45,-1
 634 671 l 2,46,35
 644 697 644 697 653 708.5 c 128,-1,36
EndSplineSet
EndChar
StartChar: Eogonek
Encoding: 280 280 31
Width: 632
GlyphClass: 2
Flags: W
AnchorPoint: "Anchor-1" 281 668 basechar 0
LayerCount: 2
Fore
SplineSet
225 668 m 1,0,-1
 623 668 l 1,1,-1
 612 618 l 1,2,-1
 273 618 l 1,3,-1
 219 369 l 1,4,-1
 494 369 l 1,5,-1
 484 319 l 1,6,-1
 209 319 l 1,7,-1
 152 50 l 1,8,-1
 495 50 l 1,9,-1
 485 0 l 1,10,11
 445 -12 445 -12 413 -36.5 c 128,-1,12
 381 -61 381 -61 381 -92 c 0,13,14
 381 -126 381 -126 432 -126 c 0,15,16
 444 -126 444 -126 458 -122 c 1,17,-1
 449 -163 l 1,18,19
 433 -168 433 -168 417 -168 c 0,20,21
 381 -168 381 -168 356.5 -151 c 128,-1,22
 332 -134 332 -134 332 -103 c 0,23,24
 332 -42 332 -42 415 0 c 1,25,-1
 83 0 l 1,26,-1
 225 668 l 1,0,-1
EndSplineSet
EndChar
StartChar: Hbar
Encoding: 294 294 38
Width: 632
GlyphClass: 1
Flags: W
LayerCount: 2
Fore
SplineSet
122 517 m 1,0,-1
 67 517 l 1,1,-1
 77 564 l 1,2,-1
 132 564 l 1,3,-1
 154 668 l 1,4,-1
 212 668 l 1,5,-1
 190 564 l 1,6,-1
 576 564 l 1,7,-1
 598 668 l 1,8,-1
 656 668 l 1,9,-1
 634 564 l 1,10,-1
 689 564 l 1,11,-1
 679 517 l 1,12,-1
 624 517 l 1,13,-1
 514 0 l 1,14,-1
 456 0 l 1,15,-1
 524 320 l 1,16,-1
 138 320 l 1,17,-1
 70 0 l 1,18,-1
 12 0 l 1,19,-1
 122 517 l 1,0,-1
534 370 m 1,20,-1
 566 517 l 1,21,-1
 180 517 l 1,22,-1
 148 370 l 1,23,-1
 534 370 l 1,20,-1
EndSplineSet
EndChar
StartChar: ij
Encoding: 307 307 157
Width: 632
GlyphClass: 1
Flags: W
LayerCount: 2
Fore
SplineSet
216 -112 m 1,0,-1
 316 -112 l 2,1,2
 343 -112 343 -112 357.5 -106 c 128,-1,3
 372 -100 372 -100 381.5 -80.5 c 128,-1,4
 391 -61 391 -61 400 -19 c 2,5,-1
 501 451 l 1,6,-1
 440 451 l 1,7,-1
 449 496 l 1,8,-1
 566 496 l 1,9,-1
 456 -24 l 2,10,11
 444 -81 444 -81 428.5 -110 c 128,-1,12
 413 -139 413 -139 389.5 -150 c 128,-1,13
 366 -161 366 -161 326 -161 c 2,14,-1
 206 -161 l 1,15,-1
 216 -112 l 1,0,-1
213 451 m 1,16,-1
 152 451 l 1,17,-1
 161 496 l 1,18,-1
 279 496 l 1,19,-1
 173 0 l 1,20,-1
 117 0 l 1,21,-1
 213 451 l 1,16,-1
237.5 613 m 128,-1,23
 223 627 223 627 223 647 c 256,24,25
 223 667 223 667 237.5 681.5 c 128,-1,26
 252 696 252 696 272 696 c 256,27,28
 292 696 292 696 306.5 681.5 c 128,-1,29
 321 667 321 667 321 647 c 0,30,31
 321 628 321 628 306.5 613.5 c 128,-1,32
 292 599 292 599 272 599 c 256,33,22
 252 599 252 599 237.5 613 c 128,-1,23
524.5 613.5 m 128,-1,35
 510 628 510 628 510 647 c 0,36,37
 510 667 510 667 524.5 681.5 c 128,-1,38
 539 696 539 696 559 696 c 256,39,40
 579 696 579 696 593.5 681.5 c 128,-1,41
 608 667 608 667 608 647 c 256,42,43
 608 627 608 627 593.5 613 c 128,-1,44
 579 599 579 599 559 599 c 256,45,34
 539 599 539 599 524.5 613.5 c 128,-1,35
EndSplineSet
EndChar
StartChar: Lslash
Encoding: 321 321 55
Width: 632
GlyphClass: 1
Flags: W
LayerCount: 2
Fore
SplineSet
148 258 m 1,0,-1
 19 193 l 1,1,-1
 32 254 l 1,2,-1
 161 320 l 1,3,-1
 235 668 l 1,4,-1
 293 668 l 1,5,-1
 226 353 l 1,6,-1
 452 467 l 1,7,-1
 438 406 l 1,8,-1
 213 292 l 1,9,-1
 162 50 l 1,10,-1
 539 50 l 1,11,-1
 529 0 l 1,12,-1
 93 0 l 1,13,-1
 148 258 l 1,0,-1
EndSplineSet
EndChar
StartChar: lslash
Encoding: 322 322 166
Width: 632
GlyphClass: 1
Flags: W
LayerCount: 2
Fore
SplineSet
227 15.5 m 128,-1,1
 203 31 203 31 203 66 c 0,2,3
 203 81 203 81 208 106 c 2,4,-1
 244 274 l 1,5,-1
 171 233 l 1,6,-1
 182 286 l 1,7,-1
 255 327 l 1,8,-1
 327 663 l 1,9,-1
 212 663 l 1,10,-1
 221 708 l 1,11,-1
 392 708 l 1,12,-1
 319 362 l 1,13,-1
 427 422 l 1,14,-1
 416 369 l 1,15,-1
 308 309 l 1,16,-1
 264 104 l 2,17,18
 261 91 261 91 261 81 c 0,19,20
 261 63 261 63 273 56 c 128,-1,21
 285 49 285 49 316 49 c 2,22,-1
 487 49 l 1,23,-1
 477 0 l 1,24,-1
 310 0 l 2,25,0
 251 0 251 0 227 15.5 c 128,-1,1
EndSplineSet
EndChar
StartChar: oe
Encoding: 339 339 181
Width: 632
GlyphClass: 2
Flags: W
AnchorPoint: "Anchor-1" 353 496 basechar 0
AnchorPoint: "Anchor-0" 247 0 basechar 0
LayerCount: 2
Fore
SplineSet
342.5 21.5 m 128,-1,1
 310 55 310 55 300 111 c 1,2,3
 268 50 268 50 223 19 c 128,-1,4
 178 -12 178 -12 134 -12 c 0,5,6
 64 -12 64 -12 32 40 c 128,-1,7
 0 92 0 92 0 171 c 0,8,9
 0 241 0 241 25 319.5 c 128,-1,10
 50 398 50 398 100.5 452 c 128,-1,11
 151 506 151 506 223 506 c 0,12,13
 329 506 329 506 351 381 c 1,14,15
 381 441 381 441 423 473.5 c 128,-1,16
 465 506 465 506 512 506 c 0,17,18
 577 506 577 506 609.5 457.5 c 128,-1,19
 642 409 642 409 642 334 c 0,20,21
 642 288 642 288 630 243 c 1,22,-1
 348 243 l 1,23,24
 341 203 341 203 341 169 c 0,25,26
 341 110 341 110 363 71.5 c 128,-1,27
 385 33 385 33 438 33 c 0,28,29
 466 33 466 33 488 48 c 128,-1,30
 510 63 510 63 534 97 c 1,31,-1
 581 79 l 1,32,33
 518 -12 518 -12 434 -12 c 0,34,0
 375 -12 375 -12 342.5 21.5 c 128,-1,1
232.5 83.5 m 128,-1,36
 270 130 270 130 289 195.5 c 128,-1,37
 308 261 308 261 308 317 c 0,38,39
 308 377 308 377 286.5 417 c 128,-1,40
 265 457 265 457 216 457 c 0,41,42
 164 457 164 457 127 410 c 128,-1,43
 90 363 90 363 71 296.5 c 128,-1,44
 52 230 52 230 52 175 c 0,45,46
 52 116 52 116 73.5 76.5 c 128,-1,47
 95 37 95 37 142 37 c 0,48,35
 195 37 195 37 232.5 83.5 c 128,-1,36
590 341 m 0,50,51
 590 394 590 394 570 427.5 c 128,-1,52
 550 461 550 461 507 461 c 0,53,54
 455 461 455 461 416.5 411 c 128,-1,55
 378 361 378 361 357 286 c 1,56,-1
 585 286 l 1,57,49
 590 316 590 316 590 341 c 0,50,51
EndSplineSet
EndChar
StartChar: Scedilla
Encoding: 350 350 80
Width: 632
GlyphClass: 2
Flags: W
AnchorPoint: "Anchor-1" 395 668 basechar 0
LayerCount: 2
Fore
SplineSet
175 -147 m 1,1,-1
 193 -123 l 1,2,3
 226 -145 226 -145 256 -145 c 0,4,5
 278 -145 278 -145 292 -133.5 c 128,-1,6
 306 -122 306 -122 306 -106 c 0,7,8
 306 -77 306 -77 264 -77 c 2,9,-1
 237 -79 l 2,10,11
 230 -79 230 -79 226 -76 c 128,-1,12
 222 -73 222 -73 222 -68 c 0,13,14
 222 -59 222 -59 229 -52 c 2,15,-1
 263 -10 l 1,16,17
 189 -3 189 -3 130.5 36 c 128,-1,18
 72 75 72 75 58 143 c 1,19,-1
 114 163 l 1,20,21
 125 102 125 102 176.5 70 c 128,-1,22
 228 38 228 38 299 38 c 0,23,24
 352 38 352 38 395 57.5 c 128,-1,25
 438 77 438 77 463 111.5 c 128,-1,26
 488 146 488 146 488 190 c 0,27,28
 488 233 488 233 455.5 260 c 128,-1,29
 423 287 423 287 363 309 c 2,30,-1
 275 342 l 2,31,32
 140 391 140 391 140 494 c 0,33,34
 140 548 140 548 173 590.5 c 128,-1,35
 206 633 206 633 260 656.5 c 128,-1,36
 314 680 314 680 374 680 c 0,37,38
 447 680 447 680 506 650 c 128,-1,39
 565 620 565 620 590 561 c 1,40,-1
 533 541 l 1,41,42
 515 584 515 584 469 607 c 128,-1,43
 423 630 423 630 370 630 c 0,44,45
 326 630 326 630 286.5 614.5 c 128,-1,46
 247 599 247 599 223 570 c 128,-1,47
 199 541 199 541 199 503 c 0,48,49
 199 461 199 461 222.5 436.5 c 128,-1,50
 246 412 246 412 299 393 c 2,51,-1
 387 360 l 2,52,53
 465 331 465 331 506 293 c 128,-1,54
 547 255 547 255 547 197 c 0,55,56
 547 134 547 134 513.5 87 c 128,-1,57
 480 40 480 40 423.5 14.5 c 128,-1,58
 367 -11 367 -11 299 -12 c 1,59,-1
 269 -47 l 1,60,61
 280 -44 280 -44 290 -44 c 0,62,63
 317 -44 317 -44 334 -59.5 c 128,-1,64
 351 -75 351 -75 351 -97 c 0,65,66
 351 -132 351 -132 324 -154.5 c 128,-1,67
 297 -177 297 -177 258 -177 c 0,68,0
 216 -177 216 -177 175 -147 c 1,1,-1
EndSplineSet
Substitution2: "'locl' Localized Forms in Latin lookup 4 subtable" uni0218
AlternateSubs2: "'aalt' Access All Alternates in Latin lookup 0 subtable" uni0218
EndChar
StartChar: scedilla
Encoding: 351 351 191
Width: 632
GlyphClass: 2
Flags: W
AnchorPoint: "Anchor-1" 364 496 basechar 0
LayerCount: 2
Fore
SplineSet
174 -147 m 1,1,-1
 192 -123 l 1,2,3
 225 -145 225 -145 255 -145 c 0,4,5
 277 -145 277 -145 291 -133.5 c 128,-1,6
 305 -122 305 -122 305 -106 c 0,7,8
 305 -77 305 -77 263 -77 c 2,9,-1
 236 -79 l 2,10,11
 229 -79 229 -79 225 -76 c 128,-1,12
 221 -73 221 -73 221 -68 c 0,13,14
 221 -59 221 -59 228 -52 c 2,15,-1
 263 -10 l 1,16,17
 199 -2 199 -2 151.5 29.5 c 128,-1,18
 104 61 104 61 89 115 c 1,19,-1
 144 135 l 1,20,21
 154 85 154 85 199.5 61 c 128,-1,22
 245 37 245 37 307 37 c 0,23,24
 367 37 367 37 406.5 63 c 128,-1,25
 446 89 446 89 446 136 c 0,26,27
 446 170 446 170 420 188 c 128,-1,28
 394 206 394 206 341 224 c 2,29,-1
 266 249 l 2,30,31
 209 268 209 268 180 296.5 c 128,-1,32
 151 325 151 325 151 370 c 0,33,34
 151 412 151 412 177.5 443 c 128,-1,35
 204 474 204 474 247.5 490 c 128,-1,36
 291 506 291 506 341 506 c 0,37,38
 408 506 408 506 460.5 480.5 c 128,-1,39
 513 455 513 455 531 404 c 1,40,-1
 478 384 l 1,41,42
 467 420 467 420 426.5 438.5 c 128,-1,43
 386 457 386 457 335 457 c 0,44,45
 282 457 282 457 244 435 c 128,-1,46
 206 413 206 413 206 375 c 0,47,48
 206 347 206 347 228.5 328.5 c 128,-1,49
 251 310 251 310 290 297 c 2,50,-1
 365 272 l 2,51,52
 433 249 433 249 467 219.5 c 128,-1,53
 501 190 501 190 501 144 c 0,54,55
 501 104 501 104 479 68.5 c 128,-1,56
 457 33 457 33 411 10.5 c 128,-1,57
 365 -12 365 -12 298 -12 c 1,58,-1
 268 -47 l 1,59,60
 279 -44 279 -44 289 -44 c 0,61,62
 316 -44 316 -44 333 -59.5 c 128,-1,63
 350 -75 350 -75 350 -97 c 0,64,65
 350 -132 350 -132 323 -154.5 c 128,-1,66
 296 -177 296 -177 257 -177 c 0,67,0
 215 -177 215 -177 174 -147 c 1,1,-1
EndSplineSet
Substitution2: "'locl' Localized Forms in Latin lookup 4 subtable" uni0219
AlternateSubs2: "'aalt' Access All Alternates in Latin lookup 0 subtable" uni0219
EndChar
StartChar: Uring
Encoding: 366 366 95
Width: 632
GlyphClass: 2
Flags: W
AnchorPoint: "Anchor-3" 735 668 basechar 0
AnchorPoint: "Anchor-1" 421 872 basechar 0
LayerCount: 2
Fore
SplineSet
77 176 m 0,1,2
 77 215 77 215 88 268 c 2,3,-1
 173 668 l 1,4,-1
 231 668 l 1,5,-1
 144 259 l 2,6,7
 135 219 135 219 135 184 c 0,8,9
 135 38 135 38 296 38 c 0,10,11
 373 38 373 38 419 83.5 c 128,-1,12
 465 129 465 129 484 222 c 2,13,-1
 579 668 l 1,14,-1
 637 668 l 1,15,-1
 542 220 l 2,16,17
 518 102 518 102 459 45 c 128,-1,18
 400 -12 400 -12 299 -12 c 0,19,0
 77 -12 77 -12 77 176 c 0,1,2
331.5 706 m 128,-1,21
 302 735 302 735 302 774 c 256,22,23
 302 813 302 813 331.5 842.5 c 128,-1,24
 361 872 361 872 403 872 c 0,25,26
 443 872 443 872 470 843 c 128,-1,27
 497 814 497 814 497 774 c 256,28,29
 497 734 497 734 470 705.5 c 128,-1,30
 443 677 443 677 403 677 c 0,31,20
 361 677 361 677 331.5 706 c 128,-1,21
439 736.5 m 128,-1,33
 455 752 455 752 455 774 c 256,34,35
 455 796 455 796 439 811.5 c 128,-1,36
 423 827 423 827 400 827 c 256,37,38
 377 827 377 827 361 811.5 c 128,-1,39
 345 796 345 796 345 774 c 256,40,41
 345 752 345 752 361 736.5 c 128,-1,42
 377 721 377 721 400 721 c 256,43,32
 423 721 423 721 439 736.5 c 128,-1,33
EndSplineSet
EndChar
StartChar: florin
Encoding: 402 402 286
Width: 632
GlyphClass: 1
Flags: W
LayerCount: 2
Fore
SplineSet
10 -154 m 1,1,-1
 21 -104 l 1,2,3
 35 -116 35 -116 58 -121.5 c 128,-1,4
 81 -127 81 -127 100 -127 c 0,5,6
 153 -127 153 -127 187 -91.5 c 128,-1,7
 221 -56 221 -56 235 12 c 2,8,-1
 329 453 l 1,9,-1
 145 453 l 1,10,-1
 154 496 l 1,11,-1
 339 496 l 1,12,-1
 356 576 l 2,13,14
 367 628 367 628 377 651.5 c 128,-1,15
 387 675 387 675 405.5 685 c 128,-1,16
 424 695 424 695 462 695 c 2,17,-1
 631 695 l 1,18,-1
 620 648 l 1,19,-1
 461 648 l 2,20,21
 438 648 438 648 428 637.5 c 128,-1,22
 418 627 418 627 411 597 c 2,23,-1
 389 496 l 1,24,-1
 589 496 l 1,25,-1
 579 453 l 1,26,-1
 380 453 l 1,27,-1
 290 31 l 2,28,29
 265 -86 265 -86 215 -129 c 128,-1,30
 165 -172 165 -172 95 -172 c 0,31,0
 43 -172 43 -172 10 -154 c 1,1,-1
EndSplineSet
EndChar
StartChar: acutecomb
Encoding: 769 769 342
Width: 0
GlyphClass: 4
Flags: W
AnchorPoint: "Anchor-5" 363 697 basemark 0
AnchorPoint: "Anchor-5" 321 496 mark 0
AnchorPoint: "Anchor-1" 321 496 mark 0
LayerCount: 2
Fore
SplineSet
434.5 689.5 m 128,-1,1
 446 697 446 697 457 697 c 256,2,3
 468 697 468 697 475 690.5 c 128,-1,4
 482 684 482 684 482 675 c 0,5,6
 482 661 482 661 473 651.5 c 128,-1,7
 464 642 464 642 435 620 c 2,8,-1
 368 569 l 1,9,-1
 314 569 l 1,10,-1
 407 666 l 2,11,0
 423 682 423 682 434.5 689.5 c 128,-1,1
EndSplineSet
Substitution2: "Single Substitution lookup 12 subtable" acutecomb.case
Substitution2: "'case' Case-Sensitive Forms in Latin lookup 9 subtable" acutecomb.case
AlternateSubs2: "'aalt' Access All Alternates in Latin lookup 0 subtable" acutecomb.case
EndChar
StartChar: tildecomb
Encoding: 771 771 355
Width: 0
GlyphClass: 4
Flags: W
AnchorPoint: "Anchor-5" 404 661 basemark 0
AnchorPoint: "Anchor-5" 369 496 mark 0
AnchorPoint: "Anchor-1" 369 496 mark 0
LayerCount: 2
Fore
SplineSet
417 582 m 128,-1,1
 403 588 403 588 387 598 c 0,2,3
 369 608 369 608 360 612 c 128,-1,4
 351 616 351 616 340 616 c 0,5,6
 322 616 322 616 308 605.5 c 128,-1,7
 294 595 294 595 287 577 c 1,8,-1
 246 577 l 1,9,10
 263 619 263 619 290 638.5 c 128,-1,11
 317 658 317 658 350 658 c 0,12,13
 366 658 366 658 378.5 653 c 128,-1,14
 391 648 391 648 409 637 c 0,15,16
 425 628 425 628 434.5 623.5 c 128,-1,17
 444 619 444 619 456 619 c 0,18,19
 471 619 471 619 481.5 625.5 c 128,-1,20
 492 632 492 632 502 645 c 0,21,22
 514 661 514 661 528 661 c 0,23,24
 534 661 534 661 537.5 657.5 c 128,-1,25
 541 654 541 654 541 647 c 0,26,27
 541 635 541 635 527.5 618 c 128,-1,28
 514 601 514 601 492.5 588.5 c 128,-1,29
 471 576 471 576 448 576 c 0,30,0
 431 576 431 576 417 582 c 128,-1,1
EndSplineSet
Substitution2: "Single Substitution lookup 12 subtable" tildecomb.case
Substitution2: "'case' Case-Sensitive Forms in Latin lookup 9 subtable" tildecomb.case
AlternateSubs2: "'aalt' Access All Alternates in Latin lookup 0 subtable" tildecomb.case
EndChar
StartChar: uni0306
Encoding: 774 774 351
Width: 0
GlyphClass: 4
Flags: W
AnchorPoint: "Anchor-5" 407 676 basemark 0
AnchorPoint: "Anchor-5" 369 496 mark 0
AnchorPoint: "Anchor-1" 369 496 mark 0
LayerCount: 2
Fore
SplineSet
321 600 m 128,-1,1
 293 628 293 628 290 671 c 1,2,-1
 331 671 l 1,3,4
 335 644 335 644 354 629 c 128,-1,5
 373 614 373 614 398 614 c 0,6,7
 428 614 428 614 450.5 631 c 128,-1,8
 473 648 473 648 482 671 c 1,9,-1
 522 671 l 1,10,11
 509 628 509 628 474.5 600 c 128,-1,12
 440 572 440 572 394 572 c 0,13,0
 349 572 349 572 321 600 c 128,-1,1
EndSplineSet
Substitution2: "Single Substitution lookup 12 subtable" uni0306.case
Substitution2: "'case' Case-Sensitive Forms in Latin lookup 9 subtable" uni0306.case
AlternateSubs2: "'aalt' Access All Alternates in Latin lookup 0 subtable" uni0306.case
EndChar
StartChar: uni0328
Encoding: 808 808 361
Width: 0
GlyphClass: 4
Flags: W
AnchorPoint: "Anchor-2" 332 10 mark 0
LayerCount: 2
Fore
SplineSet
199.5 -151 m 128,-1,1
 177 -134 177 -134 177 -105 c 0,2,3
 177 -33 177 -33 297 17 c 1,4,-1
 330 0 l 1,5,6
 290 -12 290 -12 258 -37.5 c 128,-1,7
 226 -63 226 -63 226 -93 c 0,8,9
 226 -126 226 -126 279 -126 c 0,10,11
 294 -126 294 -126 304 -123 c 1,12,-1
 295 -164 l 1,13,14
 276 -168 276 -168 257 -168 c 0,15,0
 222 -168 222 -168 199.5 -151 c 128,-1,1
EndSplineSet
Substitution2: "Single Substitution lookup 12 subtable" uni0328.case
Substitution2: "'case' Case-Sensitive Forms in Latin lookup 9 subtable" uni0328.case
AlternateSubs2: "'aalt' Access All Alternates in Latin lookup 0 subtable" uni0328.case
EndChar
StartChar: uni0394
Encoding: 916 916 225
Width: 632
GlyphClass: 1
Flags: W
LayerCount: 2
Fore
SplineSet
375 668 m 1,0,-1
 436 668 l 1,1,-1
 544 0 l 1,2,-1
 -18 0 l 1,3,-1
 375 668 l 1,0,-1
481 50 m 1,4,-1
 397 607 l 1,5,-1
 393 607 l 1,6,-1
 71 50 l 1,7,-1
 481 50 l 1,4,-1
EndSplineSet
EndChar
StartChar: uni03A9
Encoding: 937 937 226
Width: 632
GlyphClass: 1
Flags: W
LayerCount: 2
Fore
SplineSet
-14 49 m 1,0,-1
 157 49 l 1,1,-1
 171 123 l 1,2,3
 120 152 120 152 91 210 c 128,-1,4
 62 268 62 268 62 340 c 0,5,6
 62 429 62 429 105.5 507.5 c 128,-1,7
 149 586 149 586 222.5 633 c 128,-1,8
 296 680 296 680 380 680 c 0,9,10
 452 680 452 680 508.5 646 c 128,-1,11
 565 612 565 612 596 554 c 128,-1,12
 627 496 627 496 627 425 c 0,13,14
 627 332 627 332 575 247.5 c 128,-1,15
 523 163 523 163 403 113 c 1,16,-1
 390 49 l 1,17,-1
 560 49 l 1,18,-1
 550 0 l 1,19,-1
 330 0 l 1,20,-1
 361 149 l 1,21,22
 464 180 464 180 520.5 249 c 128,-1,23
 577 318 577 318 577 416 c 0,24,25
 577 476 577 476 551.5 525 c 128,-1,26
 526 574 526 574 480 602.5 c 128,-1,27
 434 631 434 631 377 631 c 0,28,29
 304 631 304 631 243.5 591 c 128,-1,30
 183 551 183 551 148 485.5 c 128,-1,31
 113 420 113 420 113 345 c 0,32,33
 113 275 113 275 143 221 c 128,-1,34
 173 167 173 167 227 149 c 1,35,-1
 196 0 l 1,36,-1
 -24 0 l 1,37,-1
 -14 49 l 1,0,-1
EndSplineSet
EndChar
StartChar: uni03BC
Encoding: 956 956 227
Width: 632
GlyphClass: 1
Flags: W
LayerCount: 2
Fore
SplineSet
181 496 m 1,0,-1
 237 496 l 1,1,-1
 174 198 l 2,2,3
 167 167 167 167 167 138 c 0,4,5
 167 90 167 90 191 63.5 c 128,-1,6
 215 37 215 37 264 37 c 0,7,8
 299 37 299 37 336 59.5 c 128,-1,9
 373 82 373 82 402 124 c 128,-1,10
 431 166 431 166 443 222 c 2,11,-1
 501 496 l 1,12,-1
 558 496 l 1,13,-1
 473 98 l 2,14,15
 469 76 469 76 469 72 c 0,16,17
 469 59 469 59 477 53.5 c 128,-1,18
 485 48 485 48 505 48 c 2,19,-1
 515 48 l 1,20,-1
 506 0 l 1,21,-1
 493 0 l 2,22,23
 442 0 442 0 425 17.5 c 128,-1,24
 408 35 408 35 412 74 c 1,25,26
 383 38 383 38 337.5 13 c 128,-1,27
 292 -12 292 -12 249 -12 c 0,28,29
 177 -12 177 -12 138 36 c 1,30,-1
 97 -162 l 1,31,-1
 41 -162 l 1,32,-1
 181 496 l 1,0,-1
EndSplineSet
EndChar
StartChar: uni1E9E
Encoding: 7838 7838 82
Width: 632
GlyphClass: 1
Flags: W
LayerCount: 2
Fore
SplineSet
283 16 m 128,-1,1
 241 44 241 44 230 102 c 1,2,-1
 282 121 l 1,3,4
 288 78 288 78 316.5 58.5 c 128,-1,5
 345 39 345 39 387 39 c 256,6,7
 429 39 429 39 460 61.5 c 128,-1,8
 491 84 491 84 507.5 119.5 c 128,-1,9
 524 155 524 155 524 193 c 0,10,11
 524 240 524 240 496 270 c 128,-1,12
 468 300 468 300 419 300 c 0,13,14
 405 300 405 300 382 295 c 1,15,-1
 364 344 l 1,16,-1
 596 609 l 1,17,18
 502 631 502 631 417 631 c 0,19,20
 349 631 349 631 304.5 619 c 128,-1,21
 260 607 260 607 229.5 571.5 c 128,-1,22
 199 536 199 536 185 467 c 2,23,-1
 86 0 l 1,24,-1
 28 0 l 1,25,-1
 128 473 l 2,26,27
 154 593 154 593 227.5 636.5 c 128,-1,28
 301 680 301 680 418 680 c 0,29,30
 522 680 522 680 660 645 c 1,31,-1
 649 594 l 1,32,-1
 434 348 l 1,33,34
 477 348 477 348 510 327.5 c 128,-1,35
 543 307 543 307 561.5 272 c 128,-1,36
 580 237 580 237 580 195 c 0,37,38
 580 141 580 141 555 93.5 c 128,-1,39
 530 46 530 46 484.5 17 c 128,-1,40
 439 -12 439 -12 381 -12 c 0,41,0
 325 -12 325 -12 283 16 c 128,-1,1
EndSplineSet
EndChar
StartChar: quoteleft
Encoding: 8216 8216 278
Width: 632
GlyphClass: 1
Flags: W
LayerCount: 2
Fore
SplineSet
330.5 462.5 m 128,-1,1
 316 478 316 478 316 497 c 0,2,3
 316 507 316 507 319.5 515 c 128,-1,4
 323 523 323 523 330 535 c 2,5,-1
 418 680 l 1,6,-1
 463 680 l 1,7,-1
 384 553 l 1,8,9
 402 546 402 546 412 532 c 128,-1,10
 422 518 422 518 422 500 c 0,11,12
 422 478 422 478 406.5 462.5 c 128,-1,13
 391 447 391 447 369 447 c 0,14,0
 345 447 345 447 330.5 462.5 c 128,-1,1
EndSplineSet
EndChar
StartChar: quotedblleft
Encoding: 8220 8220 276
Width: 632
GlyphClass: 1
Flags: W
LayerCount: 2
Fore
SplineSet
414.5 450.5 m 128,-1,1
 401 465 401 465 401 485 c 0,2,3
 401 502 401 502 414 523 c 2,4,-1
 502 668 l 1,5,-1
 547 668 l 1,6,-1
 468 542 l 1,7,8
 485 534 485 534 495.5 520.5 c 128,-1,9
 506 507 506 507 506 489 c 0,10,11
 506 467 506 467 490.5 451.5 c 128,-1,12
 475 436 475 436 453 436 c 0,13,0
 428 436 428 436 414.5 450.5 c 128,-1,1
239.5 450.5 m 128,-1,15
 226 465 226 465 226 485 c 0,16,17
 226 502 226 502 239 523 c 2,18,-1
 328 668 l 1,19,-1
 372 668 l 1,20,-1
 293 542 l 1,21,22
 331 525 331 525 331 489 c 0,23,24
 331 467 331 467 315.5 451.5 c 128,-1,25
 300 436 300 436 278 436 c 0,26,14
 253 436 253 436 239.5 450.5 c 128,-1,15
EndSplineSet
EndChar
StartChar: dagger
Encoding: 8224 8224 298
Width: 632
GlyphClass: 1
Flags: W
LayerCount: 2
Fore
SplineSet
332 444 m 1,0,-1
 143 444 l 1,1,-1
 153 496 l 1,2,-1
 342 496 l 1,3,-1
 379 668 l 1,4,-1
 434 668 l 1,5,-1
 397 496 l 1,6,-1
 585 496 l 1,7,-1
 575 444 l 1,8,-1
 387 444 l 1,9,-1
 292 0 l 1,10,-1
 237 0 l 1,11,-1
 332 444 l 1,0,-1
EndSplineSet
EndChar
StartChar: ellipsis
Encoding: 8230 8230 253
Width: 632
GlyphClass: 1
Flags: W
LayerCount: 2
Fore
SplineSet
24.5 3.5 m 128,-1,1
 9 19 9 19 9 41 c 256,2,3
 9 63 9 63 24.5 78.5 c 128,-1,4
 40 94 40 94 62 94 c 0,5,6
 85 94 85 94 100 79 c 128,-1,7
 115 64 115 64 115 41 c 0,8,9
 115 19 115 19 99.5 3.5 c 128,-1,10
 84 -12 84 -12 62 -12 c 256,11,0
 40 -12 40 -12 24.5 3.5 c 128,-1,1
234.5 3.5 m 128,-1,13
 219 19 219 19 219 41 c 256,14,15
 219 63 219 63 234.5 78.5 c 128,-1,16
 250 94 250 94 272 94 c 0,17,18
 295 94 295 94 310 79 c 128,-1,19
 325 64 325 64 325 41 c 0,20,21
 325 19 325 19 309.5 3.5 c 128,-1,22
 294 -12 294 -12 272 -12 c 256,23,12
 250 -12 250 -12 234.5 3.5 c 128,-1,13
444.5 3.5 m 128,-1,25
 429 19 429 19 429 41 c 256,26,27
 429 63 429 63 444.5 78.5 c 128,-1,28
 460 94 460 94 482 94 c 0,29,30
 505 94 505 94 520 79 c 128,-1,31
 535 64 535 64 535 41 c 0,32,33
 535 19 535 19 519.5 3.5 c 128,-1,34
 504 -12 504 -12 482 -12 c 256,35,24
 460 -12 460 -12 444.5 3.5 c 128,-1,25
EndSplineSet
EndChar
StartChar: perthousand
Encoding: 8240 8240 333
Width: 632
GlyphClass: 1
Flags: W
LayerCount: 2
Fore
SplineSet
166.5 435.5 m 128,-1,1
 136 453 136 453 118 483.5 c 128,-1,2
 100 514 100 514 100 550 c 256,3,4
 100 586 100 586 118 616.5 c 128,-1,5
 136 647 136 647 166.5 664.5 c 128,-1,6
 197 682 197 682 233 682 c 256,7,8
 269 682 269 682 299.5 664.5 c 128,-1,9
 330 647 330 647 348 616.5 c 128,-1,10
 366 586 366 586 366 550 c 256,11,12
 366 514 366 514 348 483.5 c 128,-1,13
 330 453 330 453 299.5 435.5 c 128,-1,14
 269 418 269 418 233 418 c 256,15,0
 197 418 197 418 166.5 435.5 c 128,-1,1
295.5 488 m 128,-1,17
 321 513 321 513 321 550 c 256,18,19
 321 587 321 587 295.5 612 c 128,-1,20
 270 637 270 637 233 637 c 256,21,22
 196 637 196 637 170.5 612 c 128,-1,23
 145 587 145 587 145 550 c 256,24,25
 145 513 145 513 170.5 488 c 128,-1,26
 196 463 196 463 233 463 c 256,27,16
 270 463 270 463 295.5 488 c 128,-1,17
74.5 3.5 m 128,-1,29
 44 21 44 21 26 51.5 c 128,-1,30
 8 82 8 82 8 118 c 256,31,32
 8 154 8 154 26 184.5 c 128,-1,33
 44 215 44 215 74.5 232.5 c 128,-1,34
 105 250 105 250 141 250 c 256,35,36
 177 250 177 250 207.5 232.5 c 128,-1,37
 238 215 238 215 256 184.5 c 128,-1,38
 274 154 274 154 274 118 c 256,39,40
 274 82 274 82 256 51.5 c 128,-1,41
 238 21 238 21 207.5 3.5 c 128,-1,42
 177 -14 177 -14 141 -14 c 256,43,28
 105 -14 105 -14 74.5 3.5 c 128,-1,29
203.5 56 m 128,-1,45
 229 81 229 81 229 118 c 256,46,47
 229 155 229 155 203.5 180 c 128,-1,48
 178 205 178 205 141 205 c 256,49,50
 104 205 104 205 78.5 180 c 128,-1,51
 53 155 53 155 53 118 c 256,52,53
 53 81 53 81 78.5 56 c 128,-1,54
 104 31 104 31 141 31 c 256,55,44
 178 31 178 31 203.5 56 c 128,-1,45
372.5 3.5 m 128,-1,57
 342 21 342 21 324 51.5 c 128,-1,58
 306 82 306 82 306 118 c 256,59,60
 306 154 306 154 324 184.5 c 128,-1,61
 342 215 342 215 372.5 232.5 c 128,-1,62
 403 250 403 250 439 250 c 256,63,64
 475 250 475 250 505.5 232.5 c 128,-1,65
 536 215 536 215 554 184.5 c 128,-1,66
 572 154 572 154 572 118 c 256,67,68
 572 82 572 82 554 51.5 c 128,-1,69
 536 21 536 21 505.5 3.5 c 128,-1,70
 475 -14 475 -14 439 -14 c 256,71,56
 403 -14 403 -14 372.5 3.5 c 128,-1,57
501.5 56 m 128,-1,73
 527 81 527 81 527 118 c 256,74,75
 527 155 527 155 501.5 180 c 128,-1,76
 476 205 476 205 439 205 c 256,77,78
 402 205 402 205 376.5 180 c 128,-1,79
 351 155 351 155 351 118 c 256,80,81
 351 81 351 81 376.5 56 c 128,-1,82
 402 31 402 31 439 31 c 256,83,72
 476 31 476 31 501.5 56 c 128,-1,73
52 313 m 1,84,-1
 654 515 l 1,85,-1
 644 464 l 1,86,-1
 41 262 l 1,87,-1
 52 313 l 1,84,-1
EndSplineSet
EndChar
StartChar: guilsinglleft
Encoding: 8249 8249 282
Width: 632
GlyphClass: 1
Flags: W
LayerCount: 2
Fore
SplineSet
211 250 m 1,0,-1
 401 460 l 1,1,-1
 466 460 l 1,2,-1
 270 245 l 1,3,-1
 376 40 l 1,4,-1
 319 40 l 1,5,-1
 211 250 l 1,0,-1
EndSplineSet
EndChar
StartChar: guilsinglright
Encoding: 8250 8250 283
Width: 632
GlyphClass: 1
Flags: W
LayerCount: 2
Fore
SplineSet
363 255 m 1,0,-1
 257 460 l 1,1,-1
 314 460 l 1,2,-1
 422 250 l 1,3,-1
 232 40 l 1,4,-1
 167 40 l 1,5,-1
 363 255 l 1,0,-1
EndSplineSet
EndChar
StartChar: fraction
Encoding: 8260 8260 240
Width: 632
GlyphClass: 1
Flags: W
LayerCount: 2
Fore
SplineSet
604 668 m 1,0,-1
 669 668 l 1,1,-1
 64 0 l 1,2,-1
 -1 0 l 1,3,-1
 604 668 l 1,0,-1
EndSplineSet
EndChar
StartChar: Euro
Encoding: 8364 8364 305
Width: 632
GlyphClass: 1
Flags: W
LayerCount: 2
Fore
SplineSet
174 58.5 m 128,-1,1
 119 130 119 130 119 245 c 1,2,-1
 28 245 l 1,3,-1
 56 284 l 1,4,-1
 121 284 l 1,5,6
 124 334 124 334 137 383 c 1,7,-1
 57 383 l 1,8,-1
 85 422 l 1,9,-1
 148 422 l 1,10,11
 185 535 185 535 258 609 c 128,-1,12
 331 683 331 683 437 683 c 0,13,14
 513 683 513 683 568 641.5 c 128,-1,15
 623 600 623 600 643 528 c 1,16,-1
 594 510 l 1,17,18
 579 568 579 568 537.5 600.5 c 128,-1,19
 496 633 496 633 431 633 c 0,20,21
 349 633 349 633 291 573.5 c 128,-1,22
 233 514 233 514 202 422 c 1,23,-1
 470 422 l 1,24,-1
 442 383 l 1,25,-1
 191 383 l 1,26,27
 177 330 177 330 174 284 c 1,28,-1
 378 284 l 1,29,-1
 350 245 l 1,30,-1
 173 245 l 1,31,32
 175 153 175 153 216.5 95 c 128,-1,33
 258 37 258 37 344 37 c 0,34,35
 406 37 406 37 453 68 c 128,-1,36
 500 99 500 99 533 154 c 1,37,-1
 581 132 l 1,38,39
 539 59 539 59 476 23 c 128,-1,40
 413 -13 413 -13 341 -13 c 0,41,0
 229 -13 229 -13 174 58.5 c 128,-1,1
EndSplineSet
EndChar
StartChar: uni2113
Encoding: 8467 8467 299
Width: 632
GlyphClass: 1
Flags: W
LayerCount: 2
Fore
SplineSet
203 89 m 0,1,2
 203 112 203 112 210 149 c 2,3,-1
 221 203 l 1,4,-1
 143 151 l 1,5,-1
 156 212 l 1,6,-1
 234 265 l 1,7,-1
 290 536 l 2,8,9
 305 602 305 602 337.5 641 c 128,-1,10
 370 680 370 680 423 680 c 0,11,12
 469 680 469 680 493.5 652 c 128,-1,13
 518 624 518 624 518 574 c 0,14,15
 518 476 518 476 454.5 395.5 c 128,-1,16
 391 315 391 315 281 240 c 1,17,-1
 262 145 l 2,18,19
 258 121 258 121 258 107 c 0,20,21
 258 36 258 36 319 36 c 0,22,23
 363 36 363 36 411 70 c 1,24,-1
 428 26 l 1,25,26
 403 7 403 7 371 -2.5 c 128,-1,27
 339 -12 339 -12 317 -12 c 0,28,0
 203 -12 203 -12 203 89 c 0,1,2
422.5 431 m 128,-1,30
 470 501 470 501 470 574 c 0,31,32
 470 603 470 603 457.5 619 c 128,-1,33
 445 635 445 635 421 635 c 0,34,35
 395 635 395 635 375 612 c 128,-1,36
 355 589 355 589 343 532 c 2,37,-1
 295 307 l 1,38,29
 375 361 375 361 422.5 431 c 128,-1,30
EndSplineSet
EndChar
StartChar: trademark
Encoding: 8482 8482 294
Width: 632
GlyphClass: 1
Flags: W
LayerCount: 2
Fore
SplineSet
184 630 m 1,0,-1
 93 630 l 1,1,-1
 101 668 l 1,2,-1
 327 668 l 1,3,-1
 319 630 l 1,4,-1
 228 630 l 1,5,-1
 166 343 l 1,6,-1
 122 343 l 1,7,-1
 184 630 l 1,0,-1
379 668 m 1,8,-1
 442 668 l 1,9,-1
 481 398 l 1,10,-1
 485 398 l 1,11,-1
 638 668 l 1,12,-1
 708 668 l 1,13,-1
 638 343 l 1,14,-1
 594 343 l 1,15,-1
 651 613 l 1,16,-1
 647 613 l 1,17,-1
 494 343 l 1,18,-1
 453 343 l 1,19,-1
 413 613 l 1,20,-1
 409 613 l 1,21,-1
 351 343 l 1,22,-1
 309 343 l 1,23,-1
 379 668 l 1,8,-1
EndSplineSet
EndChar
StartChar: estimated
Encoding: 8494 8494 301
Width: 632
GlyphClass: 1
Flags: W
LayerCount: 2
Fore
SplineSet
203 17 m 128,-1,1
 144 46 144 46 105 107.5 c 128,-1,2
 66 169 66 169 66 260 c 0,3,4
 66 314 66 314 98 370.5 c 128,-1,5
 130 427 130 427 188.5 464 c 128,-1,6
 247 501 247 501 322 501 c 0,7,8
 392 501 392 501 450.5 467 c 128,-1,9
 509 433 509 433 544 374.5 c 128,-1,10
 579 316 579 316 579 247 c 1,11,-1
 157 247 l 1,12,-1
 157 65 l 1,13,14
 227 1 227 1 322 1 c 0,15,16
 376 1 376 1 422.5 22.5 c 128,-1,17
 469 44 469 44 503 82 c 1,18,-1
 519 79 l 1,19,20
 483 36 483 36 432 12 c 128,-1,21
 381 -12 381 -12 322 -12 c 0,22,0
 262 -12 262 -12 203 17 c 128,-1,1
489 261 m 1,23,-1
 489 422 l 1,24,25
 455 453 455 453 412.5 470.5 c 128,-1,26
 370 488 370 488 322 488 c 0,27,28
 228 488 228 488 157 422 c 1,29,-1
 157 261 l 1,30,-1
 489 261 l 1,23,-1
EndSplineSet
EndChar
StartChar: partialdiff
Encoding: 8706 8706 331
Width: 632
GlyphClass: 1
Flags: W
LayerCount: 2
Fore
SplineSet
179.5 15 m 128,-1,1
 133 42 133 42 107.5 90.5 c 128,-1,2
 82 139 82 139 82 202 c 0,3,4
 82 279 82 279 114.5 347.5 c 128,-1,5
 147 416 147 416 207 457.5 c 128,-1,6
 267 499 267 499 344 499 c 0,7,8
 409 499 409 499 455 468 c 128,-1,9
 501 437 501 437 512 379 c 1,10,11
 514 453 514 453 479.5 509 c 128,-1,12
 445 565 445 565 383.5 595.5 c 128,-1,13
 322 626 322 626 244 628 c 1,14,-1
 255 680 l 1,15,16
 562 648 562 648 562 384 c 0,17,18
 562 293 562 293 535 202.5 c 128,-1,19
 508 112 508 112 446 50 c 128,-1,20
 384 -12 384 -12 286 -12 c 0,21,0
 226 -12 226 -12 179.5 15 c 128,-1,1
402.5 78.5 m 128,-1,23
 448 119 448 119 468.5 177 c 128,-1,24
 489 235 489 235 489 288 c 0,25,26
 489 359 489 359 451 403.5 c 128,-1,27
 413 448 413 448 342 448 c 0,28,29
 276 448 276 448 230.5 409.5 c 128,-1,30
 185 371 185 371 162.5 313.5 c 128,-1,31
 140 256 140 256 140 200 c 0,32,33
 140 127 140 127 179 82.5 c 128,-1,34
 218 38 218 38 288 38 c 0,35,22
 357 38 357 38 402.5 78.5 c 128,-1,23
EndSplineSet
EndChar
StartChar: radical
Encoding: 8730 8730 330
Width: 632
GlyphClass: 1
Flags: W
LayerCount: 2
Fore
SplineSet
140 171 m 1,0,-1
 53 171 l 1,1,-1
 64 225 l 1,2,-1
 190 225 l 1,3,-1
 253 -89 l 1,4,-1
 627 668 l 1,5,-1
 691 668 l 1,6,-1
 278 -162 l 1,7,-1
 208 -162 l 1,8,-1
 140 171 l 1,0,-1
EndSplineSet
EndChar
StartChar: infinity
Encoding: 8734 8734 326
Width: 632
GlyphClass: 1
Flags: W
LayerCount: 2
Fore
SplineSet
47.5 142 m 128,-1,1
 13 174 13 174 13 230 c 0,2,3
 13 274 13 274 31.5 313.5 c 128,-1,4
 50 353 50 353 84.5 377.5 c 128,-1,5
 119 402 119 402 166 402 c 0,6,7
 212 402 212 402 249.5 374 c 128,-1,8
 287 346 287 346 325 296 c 1,9,10
 363 335 363 335 384.5 354.5 c 128,-1,11
 406 374 406 374 434.5 388 c 128,-1,12
 463 402 463 402 497 402 c 0,13,14
 554 402 554 402 588.5 370 c 128,-1,15
 623 338 623 338 623 282 c 0,16,17
 623 238 623 238 604.5 198.5 c 128,-1,18
 586 159 586 159 551 134.5 c 128,-1,19
 516 110 516 110 469 110 c 0,20,21
 423 110 423 110 386 138.5 c 128,-1,22
 349 167 349 167 311 216 c 1,23,24
 273 177 273 177 251.5 157.5 c 128,-1,25
 230 138 230 138 201.5 124 c 128,-1,26
 173 110 173 110 139 110 c 0,27,0
 82 110 82 110 47.5 142 c 128,-1,1
203.5 179.5 m 128,-1,29
 234 199 234 199 289 257 c 1,30,31
 256 305 256 305 230 328.5 c 128,-1,32
 204 352 204 352 165 352 c 0,33,34
 137 352 137 352 114 336.5 c 128,-1,35
 91 321 91 321 77.5 295.5 c 128,-1,36
 64 270 64 270 64 243 c 0,37,38
 64 207 64 207 84 183.5 c 128,-1,39
 104 160 104 160 143 160 c 0,40,28
 173 160 173 160 203.5 179.5 c 128,-1,29
522 175.5 m 128,-1,42
 545 191 545 191 558.5 216.5 c 128,-1,43
 572 242 572 242 572 269 c 0,44,45
 572 305 572 305 552 328.5 c 128,-1,46
 532 352 532 352 493 352 c 0,47,48
 463 352 463 352 432.5 332.5 c 128,-1,49
 402 313 402 313 347 255 c 1,50,51
 380 207 380 207 406 183.5 c 128,-1,52
 432 160 432 160 471 160 c 0,53,41
 499 160 499 160 522 175.5 c 128,-1,42
EndSplineSet
EndChar
StartChar: integral
Encoding: 8747 8747 327
Width: 632
GlyphClass: 1
Flags: W
LayerCount: 2
Fore
SplineSet
98.5 -159.5 m 128,-1,1
 76 -147 76 -147 76 -120 c 0,2,3
 76 -100 76 -100 90 -86.5 c 128,-1,4
 104 -73 104 -73 126 -73 c 0,5,6
 146 -73 146 -73 158.5 -85 c 128,-1,7
 171 -97 171 -97 171 -116 c 0,8,9
 171 -130 171 -130 166 -139 c 1,10,11
 183 -138 183 -138 197.5 -115 c 128,-1,12
 212 -92 212 -92 223 -45 c 2,13,-1
 347 514 l 2,14,15
 368 609 368 609 402.5 645.5 c 128,-1,16
 437 682 437 682 486 682 c 0,17,18
 517 682 517 682 539.5 669.5 c 128,-1,19
 562 657 562 657 562 630 c 0,20,21
 562 611 562 611 547.5 597.5 c 128,-1,22
 533 584 533 584 512 584 c 0,23,24
 492 584 492 584 479.5 596 c 128,-1,25
 467 608 467 608 467 627 c 0,26,27
 467 640 467 640 472 649 c 1,28,29
 434 646 434 646 415 555 c 2,30,-1
 291 -4 l 2,31,32
 270 -99 270 -99 235.5 -135.5 c 128,-1,33
 201 -172 201 -172 152 -172 c 0,34,0
 121 -172 121 -172 98.5 -159.5 c 128,-1,1
EndSplineSet
EndChar
StartChar: approxequal
Encoding: 8776 8776 322
Width: 632
GlyphClass: 1
Flags: W
LayerCount: 2
Fore
SplineSet
98 194 m 128,-1,1
 134 224 134 224 187 224 c 0,2,3
 216 224 216 224 241 216 c 128,-1,4
 266 208 266 208 308 190 c 0,5,6
 342 175 342 175 365.5 167 c 128,-1,7
 389 159 389 159 412 159 c 0,8,9
 448 159 448 159 469.5 177 c 128,-1,10
 491 195 491 195 503 230 c 1,11,-1
 551 220 l 1,12,13
 534 168 534 168 498 138 c 128,-1,14
 462 108 462 108 409 108 c 0,15,16
 380 108 380 108 353 116.5 c 128,-1,17
 326 125 326 125 289 142 c 0,18,19
 255 157 255 157 232 165 c 128,-1,20
 209 173 209 173 185 173 c 0,21,22
 149 173 149 173 127.5 155 c 128,-1,23
 106 137 106 137 94 102 c 1,24,-1
 46 112 l 1,25,0
 62 164 62 164 98 194 c 128,-1,1
139 380.5 m 128,-1,27
 175 411 175 411 228 411 c 0,28,29
 257 411 257 411 284 402.5 c 128,-1,30
 311 394 311 394 348 377 c 0,31,32
 382 362 382 362 405.5 354 c 128,-1,33
 429 346 429 346 452 346 c 0,34,35
 488 346 488 346 509.5 364 c 128,-1,36
 531 382 531 382 543 417 c 1,37,-1
 591 406 l 1,38,39
 574 355 574 355 538 324.5 c 128,-1,40
 502 294 502 294 449 294 c 0,41,42
 420 294 420 294 393 302.5 c 128,-1,43
 366 311 366 311 329 328 c 0,44,45
 295 343 295 343 272 351 c 128,-1,46
 249 359 249 359 225 359 c 0,47,48
 189 359 189 359 167.5 341 c 128,-1,49
 146 323 146 323 134 288 c 1,50,-1
 86 299 l 1,51,26
 103 350 103 350 139 380.5 c 128,-1,27
EndSplineSet
EndChar
StartChar: notequal
Encoding: 8800 8800 316
Width: 632
GlyphClass: 1
Flags: W
LayerCount: 2
Fore
SplineSet
178 134 m 1,0,-1
 44 134 l 1,1,-1
 55 186 l 1,2,-1
 226 186 l 1,3,-1
 342 314 l 1,4,-1
 82 314 l 1,5,-1
 93 366 l 1,6,-1
 389 366 l 1,7,-1
 507 496 l 1,8,-1
 574 496 l 1,9,-1
 456 366 l 1,10,-1
 589 366 l 1,11,-1
 578 314 l 1,12,-1
 409 314 l 1,13,-1
 293 186 l 1,14,-1
 551 186 l 1,15,-1
 540 134 l 1,16,-1
 246 134 l 1,17,-1
 125 0 l 1,18,-1
 57 0 l 1,19,-1
 178 134 l 1,0,-1
EndSplineSet
EndChar
StartChar: greaterequal
Encoding: 8805 8805 319
Width: 632
GlyphClass: 1
Flags: W
LayerCount: 2
Fore
SplineSet
72 165 m 1,0,-1
 472 294 l 1,1,-1
 126 424 l 1,2,-1
 139 484 l 1,3,-1
 557 317 l 1,4,-1
 546 266 l 1,5,-1
 58 101 l 1,6,-1
 72 165 l 1,0,-1
48 55 m 1,7,-1
 501 55 l 1,8,-1
 490 0 l 1,9,-1
 36 0 l 1,10,-1
 48 55 l 1,7,-1
EndSplineSet
EndChar
StartChar: lozenge
Encoding: 9674 9674 334
Width: 632
GlyphClass: 1
Flags: W
LayerCount: 2
Fore
SplineSet
120 316 m 1,0,-1
 412 696 l 1,1,-1
 540 316 l 1,2,-1
 250 -64 l 1,3,-1
 120 316 l 1,0,-1
480 323 m 1,4,-1
 391 580 l 1,5,-1
 180 309 l 1,6,-1
 271 52 l 1,7,-1
 480 323 l 1,4,-1
EndSplineSet
EndChar
StartChar: musicalnote
Encoding: 9834 9834 287
Width: 632
GlyphClass: 1
Flags: W
LayerCount: 2
Fore
SplineSet
124.5 19.5 m 128,-1,1
 96 49 96 49 96 92 c 0,2,3
 96 134 96 134 125.5 163.5 c 128,-1,4
 155 193 155 193 198 193 c 0,5,6
 239 193 239 193 264 168 c 1,7,-1
 264 668 l 1,8,-1
 300 668 l 1,9,10
 304 621 304 621 330.5 588 c 128,-1,11
 357 555 357 555 419 506 c 0,12,13
 475 461 475 461 505 421 c 128,-1,14
 535 381 535 381 535 328 c 0,15,16
 535 307 535 307 524 279 c 128,-1,17
 513 251 513 251 490 222 c 1,18,-1
 487 223 l 1,19,20
 476 304 476 304 426 358.5 c 128,-1,21
 376 413 376 413 300 439 c 1,22,-1
 300 112 l 2,23,24
 300 54 300 54 270.5 22 c 128,-1,25
 241 -10 241 -10 195 -10 c 0,26,0
 153 -10 153 -10 124.5 19.5 c 128,-1,1
EndSplineSet
EndChar
StartChar: gravecomb.case
Encoding: 65543 -1 341
Width: 0
GlyphClass: 4
Flags: W
AnchorPoint: "Anchor-5" 493 855 basemark 0
AnchorPoint: "Anchor-5" 453 668 mark 0
AnchorPoint: "Anchor-1" 453 668 mark 0
LayerCount: 2
Fore
SplineSet
369 795 m 128,-1,1
 361 804 361 804 361 814 c 256,2,3
 361 824 361 824 369 832 c 128,-1,4
 377 840 377 840 387 840 c 0,5,6
 395 840 395 840 402.5 834.5 c 128,-1,7
 410 829 410 829 422 816 c 2,8,-1
 489 739 l 1,9,-1
 445 739 l 1,10,-1
 395 773 l 2,11,0
 377 786 377 786 369 795 c 128,-1,1
EndSplineSet
EndChar
StartChar: uni0307.case
Encoding: 65541 -1 338
Width: 0
GlyphClass: 4
Flags: W
AnchorPoint: "Anchor-5" 439 828 basemark 0
AnchorPoint: "Anchor-5" 406 668 mark 0
AnchorPoint: "Anchor-1" 406 668 mark 0
LayerCount: 2
Fore
SplineSet
398 750.5 m 128,-1,1
 384 764 384 764 384 782 c 0,2,3
 384 801 384 801 398 814.5 c 128,-1,4
 412 828 412 828 430 828 c 256,5,6
 448 828 448 828 462 814.5 c 128,-1,7
 476 801 476 801 476 782 c 0,8,9
 476 764 476 764 462 750.5 c 128,-1,10
 448 737 448 737 430 737 c 256,11,0
 412 737 412 737 398 750.5 c 128,-1,1
EndSplineSet
EndChar
StartChar: uni030A.case
Encoding: 65550 -1 354
Width: 0
GlyphClass: 4
Flags: W
AnchorPoint: "Anchor-5" 440 836 basemark 0
AnchorPoint: "Anchor-5" 415 668 mark 0
AnchorPoint: "Anchor-1" 415 668 mark 0
LayerCount: 2
Fore
SplineSet
352.5 672 m 128,-1,1
 324 700 324 700 324 740 c 0,2,3
 324 779 324 779 352.5 807.5 c 128,-1,4
 381 836 381 836 420 836 c 0,5,6
 460 836 460 836 488 807.5 c 128,-1,7
 516 779 516 779 516 740 c 0,8,9
 516 700 516 700 488 672 c 128,-1,10
 460 644 460 644 420 644 c 0,11,0
 381 644 381 644 352.5 672 c 128,-1,1
459 701 m 128,-1,13
 475 717 475 717 475 740 c 256,14,15
 475 763 475 763 459 779 c 128,-1,16
 443 795 443 795 420 795 c 0,17,18
 398 795 398 795 381.5 779 c 128,-1,19
 365 763 365 763 365 740 c 0,20,21
 365 718 365 718 381.5 701.5 c 128,-1,22
 398 685 398 685 420 685 c 0,23,12
 443 685 443 685 459 701 c 128,-1,13
EndSplineSet
EndChar
StartChar: uni030C.alt
Encoding: 65546 -1 346
Width: 0
GlyphClass: 4
Flags: W
AnchorPoint: "Anchor-3" 311 496 mark 0
LayerCount: 2
Fore
SplineSet
405.5 706.5 m 128,-1,1
 417 718 417 718 434 718 c 0,2,3
 445 718 445 718 452 712.5 c 128,-1,4
 459 707 459 707 459 699 c 256,5,6
 459 691 459 691 453.5 678.5 c 128,-1,7
 448 666 448 666 439 651 c 2,8,-1
 376 540 l 1,9,-1
 336 540 l 1,10,-1
 385 669 l 2,11,0
 394 695 394 695 405.5 706.5 c 128,-1,1
EndSplineSet
EndChar
StartChar: uni0328.case
Encoding: 65554 -1 363
Width: 0
GlyphClass: 4
Flags: W
AnchorPoint: "Anchor-2" 332 10 mark 0
LayerCount: 2
Fore
SplineSet
202 -151 m 128,-1,1
 177 -134 177 -134 177 -103 c 0,2,3
 177 -64 177 -64 205.5 -37.5 c 128,-1,4
 234 -11 234 -11 280 10 c 1,5,-1
 330 0 l 1,6,7
 290 -12 290 -12 258.5 -36.5 c 128,-1,8
 227 -61 227 -61 227 -92 c 0,9,10
 227 -126 227 -126 278 -126 c 0,11,12
 289 -126 289 -126 303 -122 c 1,13,-1
 295 -163 l 1,14,15
 279 -168 279 -168 263 -168 c 0,16,0
 227 -168 227 -168 202 -151 c 128,-1,1
EndSplineSet
EndChar
